<?xml version="1.0" encoding="utf-8"?>
<!-- Generator: Adobe Illustrator 14.0.0, SVG Export Plug-In . SVG Version: 6.00 Build 43363)  -->
<!DOCTYPE svg PUBLIC "-//W3C//DTD SVG 1.1//EN" "http://www.w3.org/Graphics/SVG/1.1/DTD/svg11.dtd">
<svg version="1.1" id="Layer_1" xmlns="http://www.w3.org/2000/svg" xmlns:xlink="http://www.w3.org/1999/xlink" x="0px" y="0px"
	 width="315px" height="166px" viewBox="0 0 315 166" enable-background="new 0 0 315 166" xml:space="preserve">
<rect x="6" y="11.5" fill="#F7F8F9" width="304.5" height="149"/>
<rect x="118.5" y="49" fill="#BCBEC0" width="66" height="22"/>
<g>
	<path d="M73.135,55.434h1.131c-1.754,1.469-2.631,3.213-2.631,5.232c0,2.035,0.873,3.779,2.619,5.232h-1.119
		c-1.734-1.379-2.602-3.119-2.602-5.221C70.533,58.6,71.4,56.852,73.135,55.434z"/>
	<path d="M79.176,58.41L77.6,58.287v-0.721h2.643v5.596l2.063,0.117V64H77.16v-0.721l2.016-0.117V58.41z M79.715,54.918
		c0.414,0,0.621,0.223,0.621,0.668c0,0.227-0.062,0.396-0.185,0.507s-0.269,0.167-0.437,0.167c-0.418,0-0.627-0.225-0.627-0.674
		C79.088,55.141,79.297,54.918,79.715,54.918z"/>
	<path d="M88.404,64v-4.143c0-1.016-0.465-1.523-1.395-1.523c-1.199,0-1.799,0.777-1.799,2.332V64h-1.066v-6.434h0.861l0.158,0.867
		h0.059c0.402-0.656,1.059-0.984,1.969-0.984c1.52,0,2.279,0.783,2.279,2.35V64H88.404z"/>
	<path d="M93.578,58.41l-1.576-0.123v-0.721h2.643v5.596l2.063,0.117V64h-5.145v-0.721l2.016-0.117V58.41z M94.117,54.918
		c0.414,0,0.621,0.223,0.621,0.668c0,0.227-0.062,0.396-0.185,0.507s-0.269,0.167-0.437,0.167c-0.418,0-0.627-0.225-0.627-0.674
		C93.49,55.141,93.699,54.918,94.117,54.918z"/>
	<path d="M103.586,63.121v0.809c-0.508,0.125-1,0.188-1.477,0.188c-1.414,0-2.121-0.672-2.121-2.016v-3.732h-1.564v-0.551
		l1.564-0.287l0.451-1.682h0.615v1.717h2.566v0.803h-2.566v3.732c0,0.762,0.375,1.143,1.125,1.143
		C102.543,63.244,103.012,63.203,103.586,63.121z"/>
	<path d="M108.965,62.605l0.082,0.135c-0.199,0.77-0.543,1.705-1.031,2.807h-0.803c0.242-0.996,0.438-1.977,0.586-2.941H108.965z
		 M108.449,57.402c0.496,0,0.744,0.271,0.744,0.814s-0.248,0.814-0.744,0.814s-0.744-0.271-0.744-0.814
		S107.953,57.402,108.449,57.402z"/>
	<path d="M125.43,57.795l-0.363,0.926c-0.586-0.223-1.109-0.334-1.57-0.334c-1.449,0-2.174,0.807-2.174,2.42
		c0,1.586,0.705,2.379,2.115,2.379c0.613,0,1.24-0.121,1.881-0.363v0.938c-0.523,0.238-1.166,0.357-1.928,0.357
		c-1.004,0-1.783-0.284-2.338-0.853s-0.832-1.384-0.832-2.446c0-1.098,0.283-1.934,0.85-2.508s1.363-0.861,2.391-0.861
		C124.156,57.449,124.813,57.564,125.43,57.795z"/>
	<path d="M129.988,64.117c-0.844,0-1.538-0.304-2.083-0.911s-0.817-1.419-0.817-2.435c0-1.027,0.265-1.838,0.794-2.432
		s1.243-0.891,2.142-0.891c0.852,0,1.549,0.303,2.092,0.908s0.814,1.41,0.814,2.414c0,1.035-0.268,1.852-0.803,2.449
		S130.879,64.117,129.988,64.117z M130.012,63.232c1.211,0,1.816-0.82,1.816-2.461c0-1.625-0.609-2.438-1.828-2.438
		c-1.207,0-1.811,0.813-1.811,2.438C128.189,62.412,128.797,63.232,130.012,63.232z"/>
	<path d="M138.813,64v-4.143c0-1.016-0.465-1.523-1.395-1.523c-1.199,0-1.799,0.777-1.799,2.332V64h-1.066v-6.434h0.861l0.158,0.867
		h0.059c0.402-0.656,1.059-0.984,1.969-0.984c1.52,0,2.279,0.783,2.279,2.35V64H138.813z"/>
	<path d="M146.072,63.139h-0.047c-0.441,0.652-1.07,0.979-1.887,0.979c-0.785,0-1.401-0.292-1.849-0.876s-0.671-1.399-0.671-2.446
		c0-1.055,0.225-1.876,0.674-2.464s1.064-0.882,1.846-0.882c0.805,0,1.434,0.313,1.887,0.938h0.07
		c-0.047-0.504-0.07-0.82-0.07-0.949v-2.555h1.066V64h-0.861L146.072,63.139z M146.025,61.035v-0.24
		c0-0.887-0.136-1.519-0.407-1.896s-0.704-0.565-1.298-0.565c-1.063,0-1.594,0.824-1.594,2.473c0,1.617,0.535,2.426,1.605,2.426
		c0.594,0,1.021-0.173,1.28-0.519S146.01,61.809,146.025,61.035z"/>
	<path d="M151.188,58.41l-1.576-0.123v-0.721h2.643v5.596l2.063,0.117V64h-5.145v-0.721l2.016-0.117V58.41z M151.727,54.918
		c0.414,0,0.621,0.223,0.621,0.668c0,0.227-0.062,0.396-0.185,0.507s-0.269,0.167-0.437,0.167c-0.418,0-0.627-0.225-0.627-0.674
		C151.1,55.141,151.309,54.918,151.727,54.918z"/>
	<path d="M161.195,63.121v0.809c-0.508,0.125-1,0.188-1.477,0.188c-1.414,0-2.121-0.672-2.121-2.016v-3.732h-1.564v-0.551
		l1.564-0.287l0.451-1.682h0.615v1.717h2.566v0.803h-2.566v3.732c0,0.762,0.375,1.143,1.125,1.143
		C160.152,63.244,160.621,63.203,161.195,63.121z"/>
	<path d="M165.59,58.41l-1.576-0.123v-0.721h2.643v5.596l2.063,0.117V64h-5.145v-0.721l2.016-0.117V58.41z M166.129,54.918
		c0.414,0,0.621,0.223,0.621,0.668c0,0.227-0.062,0.396-0.185,0.507s-0.269,0.167-0.437,0.167c-0.418,0-0.627-0.225-0.627-0.674
		C165.502,55.141,165.711,54.918,166.129,54.918z"/>
	<path d="M173.195,64.117c-0.844,0-1.538-0.304-2.083-0.911s-0.817-1.419-0.817-2.435c0-1.027,0.265-1.838,0.794-2.432
		s1.243-0.891,2.142-0.891c0.852,0,1.549,0.303,2.092,0.908s0.814,1.41,0.814,2.414c0,1.035-0.268,1.852-0.803,2.449
		S174.086,64.117,173.195,64.117z M173.219,63.232c1.211,0,1.816-0.82,1.816-2.461c0-1.625-0.609-2.438-1.828-2.438
		c-1.207,0-1.811,0.813-1.811,2.438C171.396,62.412,172.004,63.232,173.219,63.232z"/>
	<path d="M182.02,64v-4.143c0-1.016-0.465-1.523-1.395-1.523c-1.199,0-1.799,0.777-1.799,2.332V64h-1.066v-6.434h0.861l0.158,0.867
		h0.059c0.402-0.656,1.059-0.984,1.969-0.984c1.52,0,2.279,0.783,2.279,2.35V64H182.02z"/>
	<path d="M188.178,62.605l0.082,0.135c-0.199,0.77-0.543,1.705-1.031,2.807h-0.803c0.242-0.996,0.438-1.977,0.586-2.941H188.178z
		 M187.662,57.402c0.496,0,0.744,0.271,0.744,0.814s-0.248,0.814-0.744,0.814s-0.744-0.271-0.744-0.814
		S187.166,57.402,187.662,57.402z"/>
	<path d="M201.596,58.41l-1.576-0.123v-0.721h2.643v5.596l2.063,0.117V64h-5.145v-0.721l2.016-0.117V58.41z M202.135,54.918
		c0.414,0,0.621,0.223,0.621,0.668c0,0.227-0.062,0.396-0.185,0.507s-0.269,0.167-0.437,0.167c-0.418,0-0.627-0.225-0.627-0.674
		C201.508,55.141,201.717,54.918,202.135,54.918z"/>
	<path d="M210.824,64v-4.143c0-1.016-0.465-1.523-1.395-1.523c-1.199,0-1.799,0.777-1.799,2.332V64h-1.066v-6.434h0.861l0.158,0.867
		h0.059c0.402-0.656,1.059-0.984,1.969-0.984c1.52,0,2.279,0.783,2.279,2.35V64H210.824z"/>
	<path d="M219.045,57.795l-0.363,0.926c-0.586-0.223-1.109-0.334-1.57-0.334c-1.449,0-2.174,0.807-2.174,2.42
		c0,1.586,0.705,2.379,2.115,2.379c0.613,0,1.24-0.121,1.881-0.363v0.938c-0.523,0.238-1.166,0.357-1.928,0.357
		c-1.004,0-1.783-0.284-2.338-0.853s-0.832-1.384-0.832-2.446c0-1.098,0.283-1.934,0.85-2.508s1.363-0.861,2.391-0.861
		C217.771,57.449,218.428,57.564,219.045,57.795z"/>
	<path d="M226.234,57.713l-0.287,0.973c-0.48-0.176-0.918-0.264-1.313-0.264c-0.637,0-1.128,0.181-1.474,0.542
		s-0.519,0.884-0.519,1.567V64h-1.066v-6.434h0.867l0.129,1.178h0.047c0.297-0.465,0.615-0.797,0.955-0.996s0.758-0.299,1.254-0.299
		C225.289,57.449,225.758,57.537,226.234,57.713z"/>
	<path d="M233.652,60.988h-4.535c0.031,1.465,0.703,2.197,2.016,2.197c0.762,0,1.484-0.148,2.168-0.445v0.938
		c-0.648,0.293-1.359,0.439-2.133,0.439c-0.957,0-1.723-0.292-2.297-0.876s-0.861-1.388-0.861-2.411c0-1.039,0.265-1.862,0.794-2.47
		s1.237-0.911,2.124-0.911c0.828,0,1.489,0.262,1.983,0.785s0.741,1.221,0.741,2.092V60.988z M229.141,60.121h3.357
		c0-1.191-0.531-1.787-1.594-1.787C229.83,58.334,229.242,58.93,229.141,60.121z"/>
	<path d="M240.156,64v-4.143c0-0.57-0.052-0.967-0.155-1.189s-0.276-0.334-0.519-0.334c-0.34,0-0.587,0.162-0.741,0.486
		s-0.231,0.867-0.231,1.629V64h-0.943v-4.143c0-1.016-0.244-1.523-0.732-1.523c-0.328,0-0.563,0.155-0.703,0.466
		s-0.211,0.933-0.211,1.866V64h-0.949v-6.434h0.744l0.158,0.867h0.059c0.262-0.656,0.654-0.984,1.178-0.984
		c0.637,0,1.053,0.355,1.248,1.066h0.035c0.297-0.711,0.725-1.066,1.283-1.066c0.5,0,0.863,0.181,1.09,0.542s0.34,0.964,0.34,1.808
		V64H240.156z"/>
	<path d="M248.055,60.988h-4.535c0.031,1.465,0.703,2.197,2.016,2.197c0.762,0,1.484-0.148,2.168-0.445v0.938
		c-0.648,0.293-1.359,0.439-2.133,0.439c-0.957,0-1.723-0.292-2.297-0.876s-0.861-1.388-0.861-2.411c0-1.039,0.265-1.862,0.794-2.47
		s1.237-0.911,2.124-0.911c0.828,0,1.489,0.262,1.983,0.785s0.741,1.221,0.741,2.092V60.988z M243.543,60.121h3.357
		c0-1.191-0.531-1.787-1.594-1.787C244.232,58.334,243.645,58.93,243.543,60.121z"/>
	<path d="M254.031,64v-4.143c0-1.016-0.465-1.523-1.395-1.523c-1.199,0-1.799,0.777-1.799,2.332V64h-1.066v-6.434h0.861l0.158,0.867
		h0.059c0.402-0.656,1.059-0.984,1.969-0.984c1.52,0,2.279,0.783,2.279,2.35V64H254.031z"/>
	<path d="M262.012,63.121v0.809c-0.508,0.125-1,0.188-1.477,0.188c-1.414,0-2.121-0.672-2.121-2.016v-3.732h-1.564v-0.551
		l1.564-0.287l0.451-1.682h0.615v1.717h2.566v0.803h-2.566v3.732c0,0.762,0.375,1.143,1.125,1.143
		C260.969,63.244,261.438,63.203,262.012,63.121z"/>
	<path d="M266.102,65.898h-1.113c1.742-1.449,2.613-3.193,2.613-5.232c0-2.023-0.875-3.768-2.625-5.232h1.125
		c1.738,1.41,2.607,3.158,2.607,5.244C268.709,62.787,267.84,64.527,266.102,65.898z"/>
	<path d="M282.004,64.094c0,0.316,0.109,0.548,0.328,0.694s0.609,0.224,1.172,0.231v0.879c-1.711-0.023-2.566-0.596-2.566-1.717
		v-1.957c0-0.738-0.66-1.107-1.98-1.107v-0.908c1.32,0,1.98-0.369,1.98-1.107V57.15c0-1.121,0.855-1.693,2.566-1.717v0.873
		c-0.563,0.008-0.953,0.085-1.172,0.231s-0.328,0.378-0.328,0.694v1.945c0,0.809-0.455,1.293-1.365,1.453v0.07
		c0.91,0.16,1.365,0.645,1.365,1.453V64.094z"/>
	<path d="M77.189,106.913v-0.973c0.754,0.336,1.477,0.504,2.168,0.504c1.074,0,1.611-0.316,1.611-0.949
		c0-0.223-0.096-0.416-0.287-0.58s-0.633-0.371-1.324-0.621c-0.91-0.34-1.483-0.651-1.72-0.935s-0.354-0.618-0.354-1.005
		c0-0.531,0.218-0.948,0.653-1.251s1.038-0.454,1.808-0.454c0.773,0,1.494,0.145,2.162,0.434l-0.352,0.873
		c-0.711-0.281-1.334-0.422-1.869-0.422c-0.922,0-1.383,0.26-1.383,0.779c0,0.238,0.099,0.429,0.296,0.571s0.651,0.341,1.362,0.595
		c0.824,0.301,1.372,0.597,1.644,0.888s0.407,0.647,0.407,1.069c0,0.586-0.229,1.046-0.686,1.38s-1.104,0.501-1.939,0.501
		C78.418,107.317,77.686,107.183,77.189,106.913z"/>
	<path d="M89.178,106.321v0.809c-0.508,0.125-1,0.188-1.477,0.188c-1.414,0-2.121-0.672-2.121-2.016v-3.732h-1.564v-0.551
		l1.564-0.287l0.451-1.682h0.615v1.717h2.566v0.803h-2.566v3.732c0,0.762,0.375,1.143,1.125,1.143
		C88.135,106.444,88.604,106.403,89.178,106.321z"/>
	<path d="M95.646,107.2l-0.217-0.891h-0.047c-0.301,0.379-0.609,0.642-0.926,0.788s-0.725,0.22-1.225,0.22
		c-0.637,0-1.136-0.168-1.497-0.504s-0.542-0.807-0.542-1.412c0-1.297,0.996-1.977,2.988-2.039l1.189-0.041v-0.404
		c0-0.922-0.477-1.383-1.43-1.383c-0.574,0-1.215,0.16-1.922,0.48l-0.369-0.803c0.766-0.375,1.514-0.563,2.244-0.563
		c0.887,0,1.528,0.17,1.925,0.51s0.595,0.885,0.595,1.635v4.406H95.646z M95.359,104.054l-0.949,0.041
		c-0.766,0.031-1.309,0.151-1.629,0.36s-0.48,0.528-0.48,0.958c0,0.695,0.391,1.043,1.172,1.043c0.574,0,1.032-0.159,1.374-0.478
		s0.513-0.767,0.513-1.345V104.054z"/>
	<path d="M103.58,106.321v0.809c-0.508,0.125-1,0.188-1.477,0.188c-1.414,0-2.121-0.672-2.121-2.016v-3.732h-1.564v-0.551
		l1.564-0.287l0.451-1.682h0.615v1.717h2.566v0.803h-2.566v3.732c0,0.762,0.375,1.143,1.125,1.143
		C102.537,106.444,103.006,106.403,103.58,106.321z"/>
	<path d="M111.227,104.188h-4.535c0.031,1.465,0.703,2.197,2.016,2.197c0.762,0,1.484-0.148,2.168-0.445v0.938
		c-0.648,0.293-1.359,0.439-2.133,0.439c-0.957,0-1.723-0.292-2.297-0.876s-0.861-1.388-0.861-2.411c0-1.039,0.265-1.862,0.794-2.47
		s1.237-0.911,2.124-0.911c0.828,0,1.489,0.262,1.983,0.785s0.741,1.221,0.741,2.092V104.188z M106.715,103.321h3.357
		c0-1.191-0.531-1.787-1.594-1.787C107.404,101.534,106.816,102.13,106.715,103.321z"/>
	<path d="M117.73,107.2v-4.143c0-0.57-0.052-0.967-0.155-1.189s-0.276-0.334-0.519-0.334c-0.34,0-0.587,0.162-0.741,0.486
		s-0.231,0.867-0.231,1.629v3.551h-0.943v-4.143c0-1.016-0.244-1.523-0.732-1.523c-0.328,0-0.563,0.155-0.703,0.466
		s-0.211,0.933-0.211,1.866v3.334h-0.949v-6.434h0.744l0.158,0.867h0.059c0.262-0.656,0.654-0.984,1.178-0.984
		c0.637,0,1.053,0.355,1.248,1.066h0.035c0.297-0.711,0.725-1.066,1.283-1.066c0.5,0,0.863,0.181,1.09,0.542s0.34,0.964,0.34,1.808
		v4.201H117.73z"/>
	<path d="M125.629,104.188h-4.535c0.031,1.465,0.703,2.197,2.016,2.197c0.762,0,1.484-0.148,2.168-0.445v0.938
		c-0.648,0.293-1.359,0.439-2.133,0.439c-0.957,0-1.723-0.292-2.297-0.876s-0.861-1.388-0.861-2.411c0-1.039,0.265-1.862,0.794-2.47
		s1.237-0.911,2.124-0.911c0.828,0,1.489,0.262,1.983,0.785s0.741,1.221,0.741,2.092V104.188z M121.117,103.321h3.357
		c0-1.191-0.531-1.787-1.594-1.787C121.807,101.534,121.219,102.13,121.117,103.321z"/>
	<path d="M131.605,107.2v-4.143c0-1.016-0.465-1.523-1.395-1.523c-1.199,0-1.799,0.777-1.799,2.332v3.334h-1.066v-6.434h0.861
		l0.158,0.867h0.059c0.402-0.656,1.059-0.984,1.969-0.984c1.52,0,2.279,0.783,2.279,2.35v4.201H131.605z"/>
	<path d="M139.586,106.321v0.809c-0.508,0.125-1,0.188-1.477,0.188c-1.414,0-2.121-0.672-2.121-2.016v-3.732h-1.564v-0.551
		l1.564-0.287l0.451-1.682h0.615v1.717h2.566v0.803h-2.566v3.732c0,0.762,0.375,1.143,1.125,1.143
		C138.543,106.444,139.012,106.403,139.586,106.321z"/>
	<path d="M142,106.913v-0.973c0.754,0.336,1.477,0.504,2.168,0.504c1.074,0,1.611-0.316,1.611-0.949c0-0.223-0.096-0.416-0.287-0.58
		s-0.633-0.371-1.324-0.621c-0.91-0.34-1.483-0.651-1.72-0.935s-0.354-0.618-0.354-1.005c0-0.531,0.218-0.948,0.653-1.251
		s1.038-0.454,1.808-0.454c0.773,0,1.494,0.145,2.162,0.434l-0.352,0.873c-0.711-0.281-1.334-0.422-1.869-0.422
		c-0.922,0-1.383,0.26-1.383,0.779c0,0.238,0.099,0.429,0.296,0.571s0.651,0.341,1.362,0.595c0.824,0.301,1.372,0.597,1.644,0.888
		s0.407,0.647,0.407,1.069c0,0.586-0.229,1.046-0.686,1.38s-1.104,0.501-1.939,0.501C143.229,107.317,142.496,107.183,142,106.913z"
		/>
	<path d="M152.166,105.806l0.082,0.135c-0.199,0.77-0.543,1.705-1.031,2.807h-0.803c0.242-0.996,0.438-1.977,0.586-2.941H152.166z
		 M151.65,100.603c0.496,0,0.744,0.271,0.744,0.814s-0.248,0.814-0.744,0.814s-0.744-0.271-0.744-0.814
		S151.154,100.603,151.65,100.603z"/>
	<path d="M42.83,119.754c0-0.809,0.457-1.293,1.371-1.453v-0.07c-0.914-0.16-1.371-0.645-1.371-1.453v-1.945
		c0-0.316-0.11-0.549-0.331-0.697s-0.61-0.225-1.169-0.229v-0.873c1.715,0.023,2.572,0.596,2.572,1.717v1.951
		c0,0.738,0.66,1.107,1.98,1.107v0.908c-1.32,0-1.98,0.369-1.98,1.107v1.957c0,1.121-0.857,1.693-2.572,1.717v-0.879
		c0.559-0.004,0.948-0.08,1.169-0.229s0.331-0.381,0.331-0.697V119.754z"/>
</g>
<g>
	<g>
		<line fill="none" stroke="#000000" stroke-width="2" x1="125" y1="77.667" x2="125" y2="91.667"/>
		<polygon points="120.936,89.634 122.146,88.423 125,91.277 127.855,88.423 129.064,89.634 125,93.698 		"/>
	</g>
</g>
<g>
	<g>
		<polyline fill="none" stroke="#000000" stroke-width="2" points="43.333,136.167 25.333,136.167 25.333,32.667 125,32.667 
			125,46.167 		"/>
		<polygon points="41.3,140.231 40.089,139.021 42.944,136.167 40.089,133.312 41.3,132.103 45.365,136.167 		"/>
	</g>
</g>
<g display="none">
	<path display="inline" fill="#277F3E" d="M137.241,86.108v0.809c-0.508,0.125-1,0.188-1.477,0.188
		c-1.414,0-2.121-0.672-2.121-2.016v-3.732h-1.564v-0.551l1.564-0.287l0.451-1.682h0.615v1.717h2.566v0.803h-2.566v3.732
		c0,0.762,0.375,1.143,1.125,1.143C136.198,86.231,136.667,86.19,137.241,86.108z"/>
	<path display="inline" fill="#277F3E" d="M144.67,80.7l-0.287,0.973c-0.48-0.176-0.918-0.264-1.313-0.264
		c-0.637,0-1.128,0.181-1.474,0.542s-0.519,0.884-0.519,1.567v3.469h-1.066v-6.434h0.867l0.129,1.178h0.047
		c0.297-0.465,0.615-0.797,0.955-0.996s0.758-0.299,1.254-0.299C143.725,80.437,144.194,80.524,144.67,80.7z"/>
	<path display="inline" fill="#277F3E" d="M151.069,86.987l-0.158-0.861h-0.059c-0.41,0.652-1.063,0.979-1.957,0.979
		c-1.527,0-2.291-0.783-2.291-2.35v-4.201h1.066v4.143c0,1.016,0.461,1.523,1.383,1.523c0.629,0,1.088-0.181,1.377-0.542
		s0.434-0.956,0.434-1.784v-3.34h1.066v6.434H151.069z"/>
	<path display="inline" fill="#277F3E" d="M159.29,83.976h-4.535c0.031,1.465,0.703,2.197,2.016,2.197
		c0.762,0,1.484-0.148,2.168-0.445v0.938c-0.648,0.293-1.359,0.439-2.133,0.439c-0.957,0-1.723-0.292-2.297-0.876
		s-0.861-1.388-0.861-2.411c0-1.039,0.265-1.862,0.794-2.47s1.237-0.911,2.124-0.911c0.828,0,1.489,0.262,1.983,0.785
		s0.741,1.221,0.741,2.092V83.976z M154.778,83.108h3.357c0-1.191-0.531-1.787-1.594-1.787
		C155.467,81.321,154.879,81.917,154.778,83.108z"/>
</g>
<g display="none">
	<path display="inline" fill="#277F3E" d="M133.781,35.356h-2.279v5.631h-1.066v-5.631h-1.857v-0.645l1.857-0.193v-0.563
		c0-0.754,0.176-1.301,0.527-1.641s0.936-0.51,1.752-0.51c0.504,0,0.996,0.068,1.477,0.205l-0.24,0.838
		c-0.406-0.109-0.811-0.164-1.213-0.164c-0.48,0-0.807,0.098-0.979,0.293s-0.258,0.518-0.258,0.967v0.609h2.279V35.356z"/>
	<path display="inline" fill="#277F3E" d="M140.109,40.987l-0.217-0.891h-0.047c-0.301,0.379-0.609,0.642-0.926,0.788
		s-0.725,0.22-1.225,0.22c-0.637,0-1.136-0.168-1.497-0.504s-0.542-0.807-0.542-1.412c0-1.297,0.996-1.977,2.988-2.039l1.189-0.041
		v-0.404c0-0.922-0.477-1.383-1.43-1.383c-0.574,0-1.215,0.16-1.922,0.48l-0.369-0.803c0.766-0.375,1.514-0.563,2.244-0.563
		c0.887,0,1.528,0.17,1.925,0.51s0.595,0.885,0.595,1.635v4.406H140.109z M139.822,37.841l-0.949,0.041
		c-0.766,0.031-1.309,0.151-1.629,0.36s-0.48,0.528-0.48,0.958c0,0.695,0.391,1.043,1.172,1.043c0.574,0,1.032-0.159,1.374-0.478
		s0.513-0.767,0.513-1.345V37.841z"/>
	<path display="inline" fill="#277F3E" d="M145.183,32.708l-1.57-0.123V31.87h2.643v8.279l2.063,0.117v0.721h-5.15v-0.721
		l2.016-0.117V32.708z"/>
	<path display="inline" fill="#277F3E" d="M150.457,40.7v-0.973c0.754,0.336,1.477,0.504,2.168,0.504
		c1.074,0,1.611-0.316,1.611-0.949c0-0.223-0.096-0.416-0.287-0.58s-0.633-0.371-1.324-0.621c-0.91-0.34-1.483-0.651-1.72-0.935
		s-0.354-0.618-0.354-1.005c0-0.531,0.218-0.948,0.653-1.251s1.038-0.454,1.808-0.454c0.773,0,1.494,0.145,2.162,0.434l-0.352,0.873
		c-0.711-0.281-1.334-0.422-1.869-0.422c-0.922,0-1.383,0.26-1.383,0.779c0,0.238,0.099,0.429,0.296,0.571s0.651,0.341,1.362,0.595
		c0.824,0.301,1.372,0.597,1.644,0.888s0.407,0.647,0.407,1.069c0,0.586-0.229,1.046-0.686,1.38s-1.104,0.501-1.939,0.501
		C151.685,41.104,150.953,40.97,150.457,40.7z"/>
	<path display="inline" fill="#277F3E" d="M162.89,37.976h-4.535c0.031,1.465,0.703,2.197,2.016,2.197
		c0.762,0,1.484-0.148,2.168-0.445v0.938c-0.648,0.293-1.359,0.439-2.133,0.439c-0.957,0-1.723-0.292-2.297-0.876
		s-0.861-1.388-0.861-2.411c0-1.039,0.265-1.862,0.794-2.47s1.237-0.911,2.124-0.911c0.828,0,1.489,0.262,1.983,0.785
		s0.741,1.221,0.741,2.092V37.976z M158.378,37.108h3.357c0-1.191-0.531-1.787-1.594-1.787
		C159.068,35.321,158.48,35.917,158.378,37.108z"/>
</g>
<g>
	<path fill="#277F3E" d="M42.622,64.15v-5.631h-1.857v-0.93l1.857-0.193v-0.427c0-0.792,0.193-1.381,0.573-1.749
		c0.378-0.366,1.003-0.552,1.856-0.552c0.516,0,1.026,0.071,1.518,0.211l0.145,0.041l-0.322,1.124l-0.143-0.038
		c-0.392-0.105-0.787-0.159-1.174-0.159c-0.433,0-0.725,0.082-0.866,0.242c-0.146,0.166-0.221,0.458-0.221,0.868v0.459h2.279v1.103
		h-2.279v5.631H42.622z"/>
	<path fill="#277F3E" d="M46.117,58.369h-2.279V64h-1.066v-5.631h-1.857v-0.645l1.857-0.193v-0.563c0-0.754,0.176-1.301,0.527-1.641
		s0.936-0.51,1.752-0.51c0.504,0,0.996,0.068,1.477,0.205l-0.24,0.838c-0.406-0.109-0.811-0.164-1.213-0.164
		c-0.48,0-0.807,0.098-0.979,0.293s-0.258,0.518-0.258,0.967v0.609h2.279V58.369z"/>
	<path fill="#277F3E" d="M50.775,64.267c-0.884,0-1.623-0.323-2.195-0.961c-0.568-0.633-0.855-1.486-0.855-2.535
		c0-1.061,0.28-1.912,0.832-2.531c0.556-0.625,1.314-0.941,2.253-0.941c0.892,0,1.633,0.322,2.204,0.958
		c0.566,0.631,0.853,1.477,0.853,2.514c0,1.068-0.283,1.926-0.841,2.549C52.463,63.949,51.707,64.267,50.775,64.267L50.775,64.267z
		 M50.787,58.484c-1.117,0-1.661,0.749-1.661,2.288c0,1.555,0.547,2.311,1.672,2.311c1.121,0,1.667-0.756,1.667-2.311
		C52.465,59.232,51.917,58.484,50.787,58.484L50.787,58.484z"/>
	<path fill="#277F3E" d="M50.775,64.117c-0.844,0-1.538-0.304-2.083-0.911s-0.817-1.419-0.817-2.435
		c0-1.027,0.265-1.838,0.794-2.432s1.243-0.891,2.142-0.891c0.852,0,1.549,0.303,2.092,0.908s0.814,1.41,0.814,2.414
		c0,1.035-0.268,1.852-0.803,2.449S51.666,64.117,50.775,64.117z M50.799,63.232c1.211,0,1.816-0.82,1.816-2.461
		c0-1.625-0.609-2.438-1.828-2.438c-1.207,0-1.811,0.813-1.811,2.438C48.977,62.412,49.584,63.232,50.799,63.232z"/>
	<path fill="#277F3E" d="M55.799,64.15v-6.733h1.151l0.106,0.969c0.255-0.342,0.528-0.6,0.814-0.767
		c0.361-0.212,0.809-0.319,1.33-0.319c0.477,0,0.967,0.092,1.458,0.273l0.132,0.048l-0.372,1.261l-0.15-0.055
		c-0.461-0.169-0.886-0.255-1.261-0.255c-0.591,0-1.051,0.167-1.365,0.496c-0.316,0.331-0.477,0.823-0.477,1.464v3.619H55.799z"/>
	<path fill="#277F3E" d="M60.607,57.713l-0.287,0.973c-0.48-0.176-0.918-0.264-1.313-0.264c-0.637,0-1.128,0.181-1.474,0.542
		s-0.519,0.884-0.519,1.567V64h-1.066v-6.434h0.867l0.129,1.178h0.047c0.297-0.465,0.615-0.797,0.955-0.996s0.758-0.299,1.254-0.299
		C59.662,57.449,60.131,57.537,60.607,57.713z"/>
</g>
<g>
	<path fill="#277F3E" d="M141.53,87.254c-1.507,0-2.271-0.729-2.271-2.166v-3.583h-1.564v-0.826l1.594-0.292l0.456-1.701h0.88v1.717
		h2.566v1.103h-2.566v3.583c0,0.677,0.31,0.993,0.975,0.993c0.354,0,0.82-0.041,1.385-0.122l0.171-0.024v1.099l-0.114,0.028
		C142.525,87.19,142.017,87.254,141.53,87.254L141.53,87.254z"/>
	<path fill="#277F3E" d="M143.007,86.108v0.809c-0.508,0.125-1,0.188-1.477,0.188c-1.414,0-2.121-0.672-2.121-2.016v-3.732h-1.564
		v-0.551l1.564-0.287l0.451-1.682h0.615v1.717h2.566v0.803h-2.566v3.732c0,0.762,0.375,1.143,1.125,1.143
		C141.964,86.231,142.433,86.19,143.007,86.108z"/>
	<path fill="#277F3E" d="M145.628,87.137v-6.733h1.151l0.106,0.969c0.255-0.342,0.528-0.6,0.814-0.767
		c0.361-0.212,0.809-0.319,1.33-0.319c0.477,0,0.967,0.092,1.458,0.273l0.132,0.048l-0.372,1.261l-0.15-0.055
		c-0.461-0.169-0.886-0.255-1.261-0.255c-0.591,0-1.051,0.167-1.365,0.496c-0.316,0.331-0.477,0.823-0.477,1.464v3.619H145.628z"/>
	<path fill="#277F3E" d="M150.437,80.7l-0.287,0.973c-0.48-0.176-0.918-0.264-1.313-0.264c-0.637,0-1.128,0.181-1.474,0.542
		s-0.519,0.884-0.519,1.567v3.469h-1.066v-6.434h0.867l0.129,1.178h0.047c0.297-0.465,0.615-0.797,0.955-0.996
		s0.758-0.299,1.254-0.299C149.491,80.437,149.96,80.524,150.437,80.7z"/>
	<path fill="#277F3E" d="M154.661,87.254c-1.62,0-2.441-0.841-2.441-2.5v-4.351h1.366v4.292c0,0.937,0.392,1.374,1.233,1.374
		c0.586,0,0.999-0.159,1.26-0.486c0.266-0.333,0.401-0.901,0.401-1.69v-3.49h1.366v6.733h-1.136l-0.131-0.712
		C156.191,86.957,155.529,87.254,154.661,87.254L154.661,87.254z"/>
	<path fill="#277F3E" d="M156.835,86.987l-0.158-0.861h-0.059c-0.41,0.652-1.063,0.979-1.957,0.979c-1.527,0-2.291-0.783-2.291-2.35
		v-4.201h1.066v4.143c0,1.016,0.461,1.523,1.383,1.523c0.629,0,1.088-0.181,1.377-0.542s0.434-0.956,0.434-1.784v-3.34h1.066v6.434
		H156.835z"/>
	<path fill="#277F3E" d="M162.571,87.254c-0.994,0-1.803-0.31-2.404-0.921c-0.6-0.61-0.904-1.457-0.904-2.516
		c0-1.071,0.279-1.936,0.831-2.568c0.557-0.639,1.31-0.962,2.237-0.962c0.867,0,1.571,0.28,2.092,0.832
		c0.519,0.55,0.782,1.288,0.782,2.195v0.812h-4.529c0.07,1.276,0.68,1.897,1.86,1.897c0.737,0,1.447-0.146,2.108-0.433l0.209-0.091
		v1.263l-0.088,0.04C164.101,87.102,163.363,87.254,162.571,87.254L162.571,87.254z M163.749,82.958
		c-0.042-1-0.515-1.487-1.441-1.487c-0.942,0-1.465,0.487-1.597,1.487H163.749z"/>
	<path fill="#277F3E" d="M165.056,83.976h-4.535c0.031,1.465,0.703,2.197,2.016,2.197c0.762,0,1.484-0.148,2.168-0.445v0.938
		c-0.648,0.293-1.359,0.439-2.133,0.439c-0.957,0-1.723-0.292-2.297-0.876s-0.861-1.388-0.861-2.411c0-1.039,0.265-1.862,0.794-2.47
		s1.237-0.911,2.124-0.911c0.828,0,1.489,0.262,1.983,0.785s0.741,1.221,0.741,2.092V83.976z M160.544,83.108h3.357
		c0-1.191-0.531-1.787-1.594-1.787C161.233,81.321,160.646,81.917,160.544,83.108z"/>
</g>
<g>
	<path fill="#277F3E" d="M136.051,41.137v-5.631h-1.857v-0.93l1.857-0.193v-0.427c0-0.792,0.193-1.381,0.573-1.749
		c0.378-0.366,1.003-0.552,1.856-0.552c0.516,0,1.026,0.071,1.518,0.211l0.145,0.041l-0.322,1.124l-0.143-0.038
		c-0.392-0.105-0.787-0.159-1.174-0.159c-0.433,0-0.725,0.082-0.866,0.242c-0.146,0.166-0.221,0.458-0.221,0.868v0.459h2.279v1.103
		h-2.279v5.631H136.051z"/>
	<path fill="#277F3E" d="M139.547,35.356h-2.279v5.631h-1.066v-5.631h-1.857v-0.645l1.857-0.193v-0.563
		c0-0.754,0.176-1.301,0.527-1.641s0.936-0.51,1.752-0.51c0.504,0,0.996,0.068,1.477,0.205l-0.24,0.838
		c-0.406-0.109-0.811-0.164-1.213-0.164c-0.48,0-0.807,0.098-0.979,0.293s-0.258,0.518-0.258,0.967v0.609h2.279V35.356z"/>
	<path fill="#277F3E" d="M143.461,41.254c-0.673,0-1.211-0.183-1.599-0.544c-0.392-0.364-0.59-0.876-0.59-1.522
		c0-1.387,1.054-2.124,3.133-2.189l1.044-0.036v-0.259c0-0.841-0.407-1.233-1.28-1.233c-0.55,0-1.176,0.157-1.86,0.467L142.174,36
		l-0.493-1.071l0.131-0.064c0.783-0.383,1.56-0.578,2.31-0.578c0.919,0,1.6,0.184,2.022,0.546c0.429,0.368,0.647,0.956,0.647,1.749
		v4.556h-1.035l-0.188-0.773c-0.232,0.286-0.523,0.52-0.82,0.657C144.414,41.176,143.98,41.254,143.461,41.254L143.461,41.254z
		 M144.645,38.032c-0.735,0.03-1.257,0.143-1.553,0.336c-0.278,0.181-0.413,0.454-0.413,0.833c0,0.609,0.325,0.893,1.022,0.893
		c0.532,0,0.96-0.147,1.272-0.438c0.313-0.292,0.465-0.695,0.465-1.235v-0.423L144.645,38.032z"/>
	<path fill="#277F3E" d="M145.875,40.987l-0.217-0.891h-0.047c-0.301,0.379-0.609,0.642-0.926,0.788s-0.725,0.22-1.225,0.22
		c-0.637,0-1.136-0.168-1.497-0.504s-0.542-0.807-0.542-1.412c0-1.297,0.996-1.977,2.988-2.039l1.189-0.041v-0.404
		c0-0.922-0.477-1.383-1.43-1.383c-0.574,0-1.215,0.16-1.922,0.48l-0.369-0.803c0.766-0.375,1.514-0.563,2.244-0.563
		c0.887,0,1.528,0.17,1.925,0.51s0.595,0.885,0.595,1.635v4.406H145.875z M145.588,37.841l-0.949,0.041
		c-0.766,0.031-1.309,0.151-1.629,0.36s-0.48,0.528-0.48,0.958c0,0.695,0.391,1.043,1.172,1.043c0.574,0,1.032-0.159,1.374-0.478
		s0.513-0.767,0.513-1.345V37.841z"/>
	<polygon fill="#277F3E" points="148.784,41.137 148.784,40.125 150.799,40.008 150.799,32.847 149.229,32.724 149.229,31.72 
		152.171,31.72 152.171,40.008 154.234,40.125 154.234,41.137 	"/>
	<path fill="#277F3E" d="M150.949,32.708l-1.57-0.123V31.87h2.643v8.279l2.063,0.117v0.721h-5.15v-0.721l2.016-0.117V32.708z"/>
	<path fill="#277F3E" d="M158.42,41.254c-0.99,0-1.753-0.142-2.269-0.422l-0.078-0.042v-1.293l0.211,0.094
		c0.731,0.326,1.44,0.491,2.107,0.491c1.461,0,1.461-0.602,1.461-0.799c0-0.178-0.077-0.331-0.235-0.466
		c-0.122-0.104-0.442-0.292-1.277-0.594c-0.945-0.353-1.528-0.673-1.784-0.979c-0.258-0.31-0.389-0.68-0.389-1.101
		c0-0.581,0.241-1.043,0.718-1.374c0.459-0.319,1.096-0.481,1.893-0.481c0.791,0,1.538,0.15,2.222,0.446l0.134,0.058l-0.462,1.147
		l-0.139-0.055c-0.69-0.273-1.3-0.412-1.814-0.412c-1.233,0-1.233,0.474-1.233,0.629c0,0.189,0.077,0.336,0.234,0.45
		c0.185,0.134,0.63,0.327,1.325,0.575c0.856,0.312,1.413,0.615,1.703,0.926c0.297,0.318,0.447,0.713,0.447,1.172
		c0,0.634-0.251,1.139-0.747,1.501C159.967,41.076,159.285,41.254,158.42,41.254L158.42,41.254z"/>
	<path fill="#277F3E" d="M156.223,40.7v-0.973c0.754,0.336,1.477,0.504,2.168,0.504c1.074,0,1.611-0.316,1.611-0.949
		c0-0.223-0.096-0.416-0.287-0.58s-0.633-0.371-1.324-0.621c-0.91-0.34-1.483-0.651-1.72-0.935s-0.354-0.618-0.354-1.005
		c0-0.531,0.218-0.948,0.653-1.251s1.038-0.454,1.808-0.454c0.773,0,1.494,0.145,2.162,0.434l-0.352,0.873
		c-0.711-0.281-1.334-0.422-1.869-0.422c-0.922,0-1.383,0.26-1.383,0.779c0,0.238,0.099,0.429,0.296,0.571s0.651,0.341,1.362,0.595
		c0.824,0.301,1.372,0.597,1.644,0.888s0.407,0.647,0.407,1.069c0,0.586-0.229,1.046-0.686,1.38s-1.104,0.501-1.939,0.501
		C157.451,41.104,156.719,40.97,156.223,40.7z"/>
	<path fill="#277F3E" d="M166.172,41.254c-0.994,0-1.803-0.31-2.404-0.921c-0.6-0.61-0.904-1.457-0.904-2.516
		c0-1.071,0.279-1.936,0.831-2.568c0.557-0.639,1.31-0.962,2.237-0.962c0.867,0,1.571,0.28,2.092,0.832
		c0.519,0.55,0.782,1.288,0.782,2.195v0.812h-4.529c0.07,1.276,0.68,1.897,1.86,1.897c0.737,0,1.447-0.146,2.108-0.433l0.209-0.091
		v1.263l-0.088,0.04C167.702,41.102,166.963,41.254,166.172,41.254L166.172,41.254z M167.349,36.958
		c-0.042-1-0.515-1.487-1.441-1.487c-0.942,0-1.465,0.487-1.597,1.487H167.349z"/>
	<path fill="#277F3E" d="M168.656,37.976h-4.535c0.031,1.465,0.703,2.197,2.016,2.197c0.762,0,1.484-0.148,2.168-0.445v0.938
		c-0.648,0.293-1.359,0.439-2.133,0.439c-0.957,0-1.723-0.292-2.297-0.876s-0.861-1.388-0.861-2.411c0-1.039,0.265-1.862,0.794-2.47
		s1.237-0.911,2.124-0.911c0.828,0,1.489,0.262,1.983,0.785s0.741,1.221,0.741,2.092V37.976z M164.145,37.108h3.357
		c0-1.191-0.531-1.787-1.594-1.787C164.834,35.321,164.246,35.917,164.145,37.108z"/>
</g>
<g>
	<g>
		<polyline fill="none" stroke="#000000" stroke-width="2" points="162.5,104.5 291.5,104.5 291.5,33 231,33 231,51 		"/>
		<polygon points="226.936,48.967 228.146,47.756 231,50.61 233.855,47.756 235.064,48.967 231,53.031 		"/>
	</g>
</g>
</svg>
