<?xml version="1.0" encoding="utf-8"?>
<!-- Generator: Adobe Illustrator 14.0.0, SVG Export Plug-In . SVG Version: 6.00 Build 43363)  -->
<!DOCTYPE svg PUBLIC "-//W3C//DTD SVG 1.1//EN" "http://www.w3.org/Graphics/SVG/1.1/DTD/svg11.dtd">
<svg version="1.1" id="Layer_1" xmlns="http://www.w3.org/2000/svg" xmlns:xlink="http://www.w3.org/1999/xlink" x="0px" y="0px"
	 width="198px" height="180px" viewBox="0 0 198 180" enable-background="new 0 0 198 180" xml:space="preserve">
<rect x="6.75" y="11.5" fill="#F7F8F9" width="185" height="163.5"/>
<rect x="68.75" y="49" fill="#BCBEC0" width="66" height="22"/>
<g>
	<path d="M66.684,55.434h1.131c-1.754,1.469-2.631,3.213-2.631,5.232c0,2.035,0.873,3.779,2.619,5.232h-1.119
		c-1.734-1.379-2.602-3.119-2.602-5.221C64.082,58.6,64.949,56.852,66.684,55.434z"/>
	<path d="M75.771,57.795l-0.363,0.926c-0.586-0.223-1.109-0.334-1.57-0.334c-1.449,0-2.174,0.807-2.174,2.42
		c0,1.586,0.705,2.379,2.115,2.379c0.613,0,1.24-0.121,1.881-0.363v0.938c-0.523,0.238-1.166,0.357-1.928,0.357
		c-1.004,0-1.783-0.284-2.338-0.853s-0.832-1.384-0.832-2.446c0-1.098,0.283-1.934,0.85-2.508s1.363-0.861,2.391-0.861
		C74.498,57.449,75.154,57.564,75.771,57.795z"/>
	<path d="M80.33,64.117c-0.844,0-1.538-0.304-2.083-0.911s-0.817-1.419-0.817-2.435c0-1.027,0.265-1.838,0.794-2.432
		s1.243-0.891,2.142-0.891c0.852,0,1.549,0.303,2.092,0.908s0.814,1.41,0.814,2.414c0,1.035-0.268,1.852-0.803,2.449
		S81.221,64.117,80.33,64.117z M80.354,63.232c1.211,0,1.816-0.82,1.816-2.461c0-1.625-0.609-2.438-1.828-2.438
		c-1.207,0-1.811,0.813-1.811,2.438C78.531,62.412,79.139,63.232,80.354,63.232z"/>
	<path d="M89.154,64v-4.143c0-1.016-0.465-1.523-1.395-1.523c-1.199,0-1.799,0.777-1.799,2.332V64h-1.066v-6.434h0.861l0.158,0.867
		h0.059c0.402-0.656,1.059-0.984,1.969-0.984c1.52,0,2.279,0.783,2.279,2.35V64H89.154z"/>
	<path d="M96.414,63.139h-0.047c-0.441,0.652-1.07,0.979-1.887,0.979c-0.785,0-1.401-0.292-1.849-0.876s-0.671-1.399-0.671-2.446
		c0-1.055,0.225-1.876,0.674-2.464s1.064-0.882,1.846-0.882c0.805,0,1.434,0.313,1.887,0.938h0.07
		c-0.047-0.504-0.07-0.82-0.07-0.949v-2.555h1.066V64h-0.861L96.414,63.139z M96.367,61.035v-0.24c0-0.887-0.136-1.519-0.407-1.896
		s-0.704-0.565-1.298-0.565c-1.063,0-1.594,0.824-1.594,2.473c0,1.617,0.535,2.426,1.605,2.426c0.594,0,1.021-0.173,1.28-0.519
		S96.352,61.809,96.367,61.035z"/>
	<path d="M101.529,58.41l-1.576-0.123v-0.721h2.643v5.596l2.063,0.117V64h-5.145v-0.721l2.016-0.117V58.41z M102.068,54.918
		c0.414,0,0.621,0.223,0.621,0.668c0,0.227-0.062,0.396-0.185,0.507s-0.269,0.167-0.437,0.167c-0.418,0-0.627-0.225-0.627-0.674
		C101.441,55.141,101.65,54.918,102.068,54.918z"/>
	<path d="M111.537,63.121v0.809c-0.508,0.125-1,0.188-1.477,0.188c-1.414,0-2.121-0.672-2.121-2.016v-3.732h-1.564v-0.551
		l1.564-0.287l0.451-1.682h0.615v1.717h2.566v0.803h-2.566v3.732c0,0.762,0.375,1.143,1.125,1.143
		C110.494,63.244,110.963,63.203,111.537,63.121z"/>
	<path d="M115.932,58.41l-1.576-0.123v-0.721h2.643v5.596l2.063,0.117V64h-5.145v-0.721l2.016-0.117V58.41z M116.471,54.918
		c0.414,0,0.621,0.223,0.621,0.668c0,0.227-0.062,0.396-0.185,0.507s-0.269,0.167-0.437,0.167c-0.418,0-0.627-0.225-0.627-0.674
		C115.844,55.141,116.053,54.918,116.471,54.918z"/>
	<path d="M123.537,64.117c-0.844,0-1.538-0.304-2.083-0.911s-0.817-1.419-0.817-2.435c0-1.027,0.265-1.838,0.794-2.432
		s1.243-0.891,2.142-0.891c0.852,0,1.549,0.303,2.092,0.908s0.814,1.41,0.814,2.414c0,1.035-0.268,1.852-0.803,2.449
		S124.428,64.117,123.537,64.117z M123.561,63.232c1.211,0,1.816-0.82,1.816-2.461c0-1.625-0.609-2.438-1.828-2.438
		c-1.207,0-1.811,0.813-1.811,2.438C121.738,62.412,122.346,63.232,123.561,63.232z"/>
	<path d="M132.361,64v-4.143c0-1.016-0.465-1.523-1.395-1.523c-1.199,0-1.799,0.777-1.799,2.332V64h-1.066v-6.434h0.861l0.158,0.867
		h0.059c0.402-0.656,1.059-0.984,1.969-0.984c1.52,0,2.279,0.783,2.279,2.35V64H132.361z"/>
	<path d="M137.23,65.898h-1.113c1.742-1.449,2.613-3.193,2.613-5.232c0-2.023-0.875-3.768-2.625-5.232h1.125
		c1.738,1.41,2.607,3.158,2.607,5.244C139.838,62.787,138.969,64.527,137.23,65.898z"/>
	<path d="M153.133,64.094c0,0.316,0.109,0.548,0.328,0.694s0.609,0.224,1.172,0.231v0.879c-1.711-0.023-2.566-0.596-2.566-1.717
		v-1.957c0-0.738-0.66-1.107-1.98-1.107v-0.908c1.32,0,1.98-0.369,1.98-1.107V57.15c0-1.121,0.855-1.693,2.566-1.717v0.873
		c-0.563,0.008-0.953,0.085-1.172,0.231s-0.328,0.378-0.328,0.694v1.945c0,0.809-0.455,1.293-1.365,1.453v0.07
		c0.91,0.16,1.365,0.645,1.365,1.453V64.094z"/>
	<path d="M77.939,106.913v-0.973c0.754,0.336,1.477,0.504,2.168,0.504c1.074,0,1.611-0.316,1.611-0.949
		c0-0.223-0.096-0.416-0.287-0.58s-0.633-0.371-1.324-0.621c-0.91-0.34-1.483-0.651-1.72-0.935s-0.354-0.618-0.354-1.005
		c0-0.531,0.218-0.948,0.653-1.251s1.038-0.454,1.808-0.454c0.773,0,1.494,0.145,2.162,0.434l-0.352,0.873
		c-0.711-0.281-1.334-0.422-1.869-0.422c-0.922,0-1.383,0.26-1.383,0.779c0,0.238,0.099,0.429,0.296,0.571s0.651,0.341,1.362,0.595
		c0.824,0.301,1.372,0.597,1.644,0.888s0.407,0.647,0.407,1.069c0,0.586-0.229,1.046-0.686,1.38s-1.104,0.501-1.939,0.501
		C79.168,107.317,78.436,107.183,77.939,106.913z"/>
	<path d="M89.928,106.321v0.809c-0.508,0.125-1,0.188-1.477,0.188c-1.414,0-2.121-0.672-2.121-2.016v-3.732h-1.564v-0.551
		l1.564-0.287l0.451-1.682h0.615v1.717h2.566v0.803h-2.566v3.732c0,0.762,0.375,1.143,1.125,1.143
		C88.885,106.444,89.354,106.403,89.928,106.321z"/>
	<path d="M96.396,107.2l-0.217-0.891h-0.047c-0.301,0.379-0.609,0.642-0.926,0.788s-0.725,0.22-1.225,0.22
		c-0.637,0-1.136-0.168-1.497-0.504s-0.542-0.807-0.542-1.412c0-1.297,0.996-1.977,2.988-2.039l1.189-0.041v-0.404
		c0-0.922-0.477-1.383-1.43-1.383c-0.574,0-1.215,0.16-1.922,0.48l-0.369-0.803c0.766-0.375,1.514-0.563,2.244-0.563
		c0.887,0,1.528,0.17,1.925,0.51s0.595,0.885,0.595,1.635v4.406H96.396z M96.109,104.054l-0.949,0.041
		c-0.766,0.031-1.309,0.151-1.629,0.36s-0.48,0.528-0.48,0.958c0,0.695,0.391,1.043,1.172,1.043c0.574,0,1.032-0.159,1.374-0.478
		s0.513-0.767,0.513-1.345V104.054z"/>
	<path d="M104.33,106.321v0.809c-0.508,0.125-1,0.188-1.477,0.188c-1.414,0-2.121-0.672-2.121-2.016v-3.732h-1.564v-0.551
		l1.564-0.287l0.451-1.682h0.615v1.717h2.566v0.803h-2.566v3.732c0,0.762,0.375,1.143,1.125,1.143
		C103.287,106.444,103.756,106.403,104.33,106.321z"/>
	<path d="M111.977,104.188h-4.535c0.031,1.465,0.703,2.197,2.016,2.197c0.762,0,1.484-0.148,2.168-0.445v0.938
		c-0.648,0.293-1.359,0.439-2.133,0.439c-0.957,0-1.723-0.292-2.297-0.876s-0.861-1.388-0.861-2.411c0-1.039,0.265-1.862,0.794-2.47
		s1.237-0.911,2.124-0.911c0.828,0,1.489,0.262,1.983,0.785s0.741,1.221,0.741,2.092V104.188z M107.465,103.321h3.357
		c0-1.191-0.531-1.787-1.594-1.787C108.154,101.534,107.566,102.13,107.465,103.321z"/>
	<path d="M118.48,107.2v-4.143c0-0.57-0.052-0.967-0.155-1.189s-0.276-0.334-0.519-0.334c-0.34,0-0.587,0.162-0.741,0.486
		s-0.231,0.867-0.231,1.629v3.551h-0.943v-4.143c0-1.016-0.244-1.523-0.732-1.523c-0.328,0-0.563,0.155-0.703,0.466
		s-0.211,0.933-0.211,1.866v3.334h-0.949v-6.434h0.744l0.158,0.867h0.059c0.262-0.656,0.654-0.984,1.178-0.984
		c0.637,0,1.053,0.355,1.248,1.066h0.035c0.297-0.711,0.725-1.066,1.283-1.066c0.5,0,0.863,0.181,1.09,0.542s0.34,0.964,0.34,1.808
		v4.201H118.48z"/>
	<path d="M126.379,104.188h-4.535c0.031,1.465,0.703,2.197,2.016,2.197c0.762,0,1.484-0.148,2.168-0.445v0.938
		c-0.648,0.293-1.359,0.439-2.133,0.439c-0.957,0-1.723-0.292-2.297-0.876s-0.861-1.388-0.861-2.411c0-1.039,0.265-1.862,0.794-2.47
		s1.237-0.911,2.124-0.911c0.828,0,1.489,0.262,1.983,0.785s0.741,1.221,0.741,2.092V104.188z M121.867,103.321h3.357
		c0-1.191-0.531-1.787-1.594-1.787C122.557,101.534,121.969,102.13,121.867,103.321z"/>
	<path d="M132.355,107.2v-4.143c0-1.016-0.465-1.523-1.395-1.523c-1.199,0-1.799,0.777-1.799,2.332v3.334h-1.066v-6.434h0.861
		l0.158,0.867h0.059c0.402-0.656,1.059-0.984,1.969-0.984c1.52,0,2.279,0.783,2.279,2.35v4.201H132.355z"/>
	<path d="M140.336,106.321v0.809c-0.508,0.125-1,0.188-1.477,0.188c-1.414,0-2.121-0.672-2.121-2.016v-3.732h-1.564v-0.551
		l1.564-0.287l0.451-1.682h0.615v1.717h2.566v0.803h-2.566v3.732c0,0.762,0.375,1.143,1.125,1.143
		C139.293,106.444,139.762,106.403,140.336,106.321z"/>
	<path d="M142.75,106.913v-0.973c0.754,0.336,1.477,0.504,2.168,0.504c1.074,0,1.611-0.316,1.611-0.949
		c0-0.223-0.096-0.416-0.287-0.58s-0.633-0.371-1.324-0.621c-0.91-0.34-1.483-0.651-1.72-0.935s-0.354-0.618-0.354-1.005
		c0-0.531,0.218-0.948,0.653-1.251s1.038-0.454,1.808-0.454c0.773,0,1.494,0.145,2.162,0.434l-0.352,0.873
		c-0.711-0.281-1.334-0.422-1.869-0.422c-0.922,0-1.383,0.26-1.383,0.779c0,0.238,0.099,0.429,0.296,0.571s0.651,0.341,1.362,0.595
		c0.824,0.301,1.372,0.597,1.644,0.888s0.407,0.647,0.407,1.069c0,0.586-0.229,1.046-0.686,1.38s-1.104,0.501-1.939,0.501
		C143.979,107.317,143.246,107.183,142.75,106.913z"/>
	<path d="M152.916,105.806l0.082,0.135c-0.199,0.77-0.543,1.705-1.031,2.807h-0.803c0.242-0.996,0.438-1.977,0.586-2.941H152.916z
		 M152.4,100.603c0.496,0,0.744,0.271,0.744,0.814s-0.248,0.814-0.744,0.814s-0.744-0.271-0.744-0.814
		S151.904,100.603,152.4,100.603z"/>
	<path d="M43.58,119.754c0-0.809,0.457-1.293,1.371-1.453v-0.07c-0.914-0.16-1.371-0.645-1.371-1.453v-1.945
		c0-0.316-0.11-0.549-0.331-0.697s-0.61-0.225-1.169-0.229v-0.873c1.715,0.023,2.572,0.596,2.572,1.717v1.951
		c0,0.738,0.66,1.107,1.98,1.107v0.908c-1.32,0-1.98,0.369-1.98,1.107v1.957c0,1.121-0.857,1.693-2.572,1.717v-0.879
		c0.559-0.004,0.948-0.08,1.169-0.229s0.331-0.381,0.331-0.697V119.754z"/>
	<path d="M95.523,121.694c0,0.316,0.109,0.548,0.328,0.694s0.609,0.224,1.172,0.231v0.879c-1.711-0.023-2.566-0.596-2.566-1.717
		v-1.957c0-0.738-0.66-1.107-1.98-1.107v-0.908c1.32,0,1.98-0.369,1.98-1.107v-1.951c0-1.121,0.855-1.693,2.566-1.717v0.873
		c-0.563,0.008-0.953,0.085-1.172,0.231s-0.328,0.378-0.328,0.694v1.945c0,0.809-0.455,1.293-1.365,1.453v0.07
		c0.91,0.16,1.365,0.645,1.365,1.453V121.694z"/>
	<path d="M77.939,135.713v-0.973c0.754,0.336,1.477,0.504,2.168,0.504c1.074,0,1.611-0.316,1.611-0.949
		c0-0.223-0.096-0.416-0.287-0.58s-0.633-0.371-1.324-0.621c-0.91-0.34-1.483-0.651-1.72-0.935s-0.354-0.618-0.354-1.005
		c0-0.531,0.218-0.948,0.653-1.251s1.038-0.454,1.808-0.454c0.773,0,1.494,0.145,2.162,0.434l-0.352,0.873
		c-0.711-0.281-1.334-0.422-1.869-0.422c-0.922,0-1.383,0.26-1.383,0.779c0,0.238,0.099,0.429,0.296,0.571s0.651,0.341,1.362,0.595
		c0.824,0.301,1.372,0.597,1.644,0.888s0.407,0.647,0.407,1.069c0,0.586-0.229,1.046-0.686,1.38s-1.104,0.501-1.939,0.501
		C79.168,136.117,78.436,135.982,77.939,135.713z"/>
	<path d="M89.928,135.121v0.809c-0.508,0.125-1,0.188-1.477,0.188c-1.414,0-2.121-0.672-2.121-2.016v-3.732h-1.564v-0.551
		l1.564-0.287l0.451-1.682h0.615v1.717h2.566v0.803h-2.566v3.732c0,0.762,0.375,1.143,1.125,1.143
		C88.885,135.244,89.354,135.203,89.928,135.121z"/>
	<path d="M96.396,136l-0.217-0.891h-0.047c-0.301,0.379-0.609,0.642-0.926,0.788s-0.725,0.22-1.225,0.22
		c-0.637,0-1.136-0.168-1.497-0.504s-0.542-0.807-0.542-1.412c0-1.297,0.996-1.977,2.988-2.039l1.189-0.041v-0.404
		c0-0.922-0.477-1.383-1.43-1.383c-0.574,0-1.215,0.16-1.922,0.48l-0.369-0.803c0.766-0.375,1.514-0.563,2.244-0.563
		c0.887,0,1.528,0.17,1.925,0.51s0.595,0.885,0.595,1.635V136H96.396z M96.109,132.854l-0.949,0.041
		c-0.766,0.031-1.309,0.151-1.629,0.36s-0.48,0.528-0.48,0.958c0,0.695,0.391,1.043,1.172,1.043c0.574,0,1.032-0.159,1.374-0.478
		s0.513-0.767,0.513-1.345V132.854z"/>
	<path d="M104.33,135.121v0.809c-0.508,0.125-1,0.188-1.477,0.188c-1.414,0-2.121-0.672-2.121-2.016v-3.732h-1.564v-0.551
		l1.564-0.287l0.451-1.682h0.615v1.717h2.566v0.803h-2.566v3.732c0,0.762,0.375,1.143,1.125,1.143
		C103.287,135.244,103.756,135.203,104.33,135.121z"/>
	<path d="M111.977,132.988h-4.535c0.031,1.465,0.703,2.197,2.016,2.197c0.762,0,1.484-0.148,2.168-0.445v0.938
		c-0.648,0.293-1.359,0.439-2.133,0.439c-0.957,0-1.723-0.292-2.297-0.876s-0.861-1.388-0.861-2.411c0-1.039,0.265-1.862,0.794-2.47
		s1.237-0.911,2.124-0.911c0.828,0,1.489,0.262,1.983,0.785s0.741,1.221,0.741,2.092V132.988z M107.465,132.121h3.357
		c0-1.191-0.531-1.787-1.594-1.787C108.154,130.334,107.566,130.93,107.465,132.121z"/>
	<path d="M118.48,136v-4.143c0-0.57-0.052-0.967-0.155-1.189s-0.276-0.334-0.519-0.334c-0.34,0-0.587,0.162-0.741,0.486
		s-0.231,0.867-0.231,1.629V136h-0.943v-4.143c0-1.016-0.244-1.523-0.732-1.523c-0.328,0-0.563,0.155-0.703,0.466
		s-0.211,0.933-0.211,1.866V136h-0.949v-6.434h0.744l0.158,0.867h0.059c0.262-0.656,0.654-0.984,1.178-0.984
		c0.637,0,1.053,0.355,1.248,1.066h0.035c0.297-0.711,0.725-1.066,1.283-1.066c0.5,0,0.863,0.181,1.09,0.542s0.34,0.964,0.34,1.808
		V136H118.48z"/>
	<path d="M126.379,132.988h-4.535c0.031,1.465,0.703,2.197,2.016,2.197c0.762,0,1.484-0.148,2.168-0.445v0.938
		c-0.648,0.293-1.359,0.439-2.133,0.439c-0.957,0-1.723-0.292-2.297-0.876s-0.861-1.388-0.861-2.411c0-1.039,0.265-1.862,0.794-2.47
		s1.237-0.911,2.124-0.911c0.828,0,1.489,0.262,1.983,0.785s0.741,1.221,0.741,2.092V132.988z M121.867,132.121h3.357
		c0-1.191-0.531-1.787-1.594-1.787C122.557,130.334,121.969,130.93,121.867,132.121z"/>
	<path d="M132.355,136v-4.143c0-1.016-0.465-1.523-1.395-1.523c-1.199,0-1.799,0.777-1.799,2.332V136h-1.066v-6.434h0.861
		l0.158,0.867h0.059c0.402-0.656,1.059-0.984,1.969-0.984c1.52,0,2.279,0.783,2.279,2.35V136H132.355z"/>
	<path d="M140.336,135.121v0.809c-0.508,0.125-1,0.188-1.477,0.188c-1.414,0-2.121-0.672-2.121-2.016v-3.732h-1.564v-0.551
		l1.564-0.287l0.451-1.682h0.615v1.717h2.566v0.803h-2.566v3.732c0,0.762,0.375,1.143,1.125,1.143
		C139.293,135.244,139.762,135.203,140.336,135.121z"/>
	<path d="M142.75,135.713v-0.973c0.754,0.336,1.477,0.504,2.168,0.504c1.074,0,1.611-0.316,1.611-0.949
		c0-0.223-0.096-0.416-0.287-0.58s-0.633-0.371-1.324-0.621c-0.91-0.34-1.483-0.651-1.72-0.935s-0.354-0.618-0.354-1.005
		c0-0.531,0.218-0.948,0.653-1.251s1.038-0.454,1.808-0.454c0.773,0,1.494,0.145,2.162,0.434l-0.352,0.873
		c-0.711-0.281-1.334-0.422-1.869-0.422c-0.922,0-1.383,0.26-1.383,0.779c0,0.238,0.099,0.429,0.296,0.571s0.651,0.341,1.362,0.595
		c0.824,0.301,1.372,0.597,1.644,0.888s0.407,0.647,0.407,1.069c0,0.586-0.229,1.046-0.686,1.38s-1.104,0.501-1.939,0.501
		C143.979,136.117,143.246,135.982,142.75,135.713z"/>
	<path d="M152.916,134.605l0.082,0.135c-0.199,0.77-0.543,1.705-1.031,2.807h-0.803c0.242-0.996,0.438-1.977,0.586-2.941H152.916z
		 M152.4,129.402c0.496,0,0.744,0.271,0.744,0.814s-0.248,0.814-0.744,0.814s-0.744-0.271-0.744-0.814
		S151.904,129.402,152.4,129.402z"/>
	<path d="M43.58,148.554c0-0.809,0.457-1.293,1.371-1.453v-0.07c-0.914-0.16-1.371-0.645-1.371-1.453v-1.945
		c0-0.316-0.11-0.549-0.331-0.697s-0.61-0.225-1.169-0.229v-0.873c1.715,0.023,2.572,0.596,2.572,1.717v1.951
		c0,0.738,0.66,1.107,1.98,1.107v0.908c-1.32,0-1.98,0.369-1.98,1.107v1.957c0,1.121-0.857,1.693-2.572,1.717v-0.879
		c0.559-0.004,0.948-0.08,1.169-0.229s0.331-0.381,0.331-0.697V148.554z"/>
</g>
<g display="none">
	<path display="inline" fill="#277F3E" d="M114.991,86.108v0.809c-0.508,0.125-1,0.188-1.477,0.188
		c-1.414,0-2.121-0.672-2.121-2.016v-3.732h-1.564v-0.551l1.564-0.287l0.451-1.682h0.615v1.717h2.566v0.803h-2.566v3.732
		c0,0.762,0.375,1.143,1.125,1.143C113.948,86.231,114.417,86.19,114.991,86.108z"/>
	<path display="inline" fill="#277F3E" d="M122.42,80.7l-0.287,0.973c-0.48-0.176-0.918-0.264-1.313-0.264
		c-0.637,0-1.128,0.181-1.474,0.542s-0.519,0.884-0.519,1.567v3.469h-1.066v-6.434h0.867l0.129,1.178h0.047
		c0.297-0.465,0.615-0.797,0.955-0.996s0.758-0.299,1.254-0.299C121.475,80.437,121.944,80.524,122.42,80.7z"/>
	<path display="inline" fill="#277F3E" d="M128.819,86.987l-0.158-0.861h-0.059c-0.41,0.652-1.063,0.979-1.957,0.979
		c-1.527,0-2.291-0.783-2.291-2.35v-4.201h1.066v4.143c0,1.016,0.461,1.523,1.383,1.523c0.629,0,1.088-0.181,1.377-0.542
		s0.434-0.956,0.434-1.784v-3.34h1.066v6.434H128.819z"/>
	<path display="inline" fill="#277F3E" d="M137.04,83.976h-4.535c0.031,1.465,0.703,2.197,2.016,2.197
		c0.762,0,1.484-0.148,2.168-0.445v0.938c-0.648,0.293-1.359,0.439-2.133,0.439c-0.957,0-1.723-0.292-2.297-0.876
		s-0.861-1.388-0.861-2.411c0-1.039,0.265-1.862,0.794-2.47s1.237-0.911,2.124-0.911c0.828,0,1.489,0.262,1.983,0.785
		s0.741,1.221,0.741,2.092V83.976z M132.528,83.108h3.357c0-1.191-0.531-1.787-1.594-1.787
		C133.217,81.321,132.629,81.917,132.528,83.108z"/>
</g>
<g display="none">
	<path display="inline" fill="#277F3E" d="M111.531,35.356h-2.279v5.631h-1.066v-5.631h-1.857v-0.645l1.857-0.193v-0.563
		c0-0.754,0.176-1.301,0.527-1.641s0.936-0.51,1.752-0.51c0.504,0,0.996,0.068,1.477,0.205l-0.24,0.838
		c-0.406-0.109-0.811-0.164-1.213-0.164c-0.48,0-0.807,0.098-0.979,0.293s-0.258,0.518-0.258,0.967v0.609h2.279V35.356z"/>
	<path display="inline" fill="#277F3E" d="M117.859,40.987l-0.217-0.891h-0.047c-0.301,0.379-0.609,0.642-0.926,0.788
		s-0.725,0.22-1.225,0.22c-0.637,0-1.136-0.168-1.497-0.504s-0.542-0.807-0.542-1.412c0-1.297,0.996-1.977,2.988-2.039l1.189-0.041
		v-0.404c0-0.922-0.477-1.383-1.43-1.383c-0.574,0-1.215,0.16-1.922,0.48l-0.369-0.803c0.766-0.375,1.514-0.563,2.244-0.563
		c0.887,0,1.528,0.17,1.925,0.51s0.595,0.885,0.595,1.635v4.406H117.859z M117.572,37.841l-0.949,0.041
		c-0.766,0.031-1.309,0.151-1.629,0.36s-0.48,0.528-0.48,0.958c0,0.695,0.391,1.043,1.172,1.043c0.574,0,1.032-0.159,1.374-0.478
		s0.513-0.767,0.513-1.345V37.841z"/>
	<path display="inline" fill="#277F3E" d="M122.933,32.708l-1.57-0.123V31.87h2.643v8.279l2.063,0.117v0.721h-5.15v-0.721
		l2.016-0.117V32.708z"/>
	<path display="inline" fill="#277F3E" d="M128.207,40.7v-0.973c0.754,0.336,1.477,0.504,2.168,0.504
		c1.074,0,1.611-0.316,1.611-0.949c0-0.223-0.096-0.416-0.287-0.58s-0.633-0.371-1.324-0.621c-0.91-0.34-1.483-0.651-1.72-0.935
		s-0.354-0.618-0.354-1.005c0-0.531,0.218-0.948,0.653-1.251s1.038-0.454,1.808-0.454c0.773,0,1.494,0.145,2.162,0.434l-0.352,0.873
		c-0.711-0.281-1.334-0.422-1.869-0.422c-0.922,0-1.383,0.26-1.383,0.779c0,0.238,0.099,0.429,0.296,0.571s0.651,0.341,1.362,0.595
		c0.824,0.301,1.372,0.597,1.644,0.888s0.407,0.647,0.407,1.069c0,0.586-0.229,1.046-0.686,1.38s-1.104,0.501-1.939,0.501
		C129.435,41.104,128.703,40.97,128.207,40.7z"/>
	<path display="inline" fill="#277F3E" d="M140.64,37.976h-4.535c0.031,1.465,0.703,2.197,2.016,2.197
		c0.762,0,1.484-0.148,2.168-0.445v0.938c-0.648,0.293-1.359,0.439-2.133,0.439c-0.957,0-1.723-0.292-2.297-0.876
		s-0.861-1.388-0.861-2.411c0-1.039,0.265-1.862,0.794-2.47s1.237-0.911,2.124-0.911c0.828,0,1.489,0.262,1.983,0.785
		s0.741,1.221,0.741,2.092V37.976z M136.128,37.108h3.357c0-1.191-0.531-1.787-1.594-1.787
		C136.818,35.321,136.23,35.917,136.128,37.108z"/>
</g>
<g>
	<path fill="#277F3E" d="M113.514,87.254c-1.507,0-2.271-0.729-2.271-2.166v-3.583h-1.564v-0.826l1.594-0.292l0.456-1.701h0.88
		v1.717h2.566v1.103h-2.566v3.583c0,0.677,0.31,0.993,0.975,0.993c0.354,0,0.82-0.041,1.385-0.122l0.171-0.024v1.099l-0.114,0.028
		C114.509,87.19,114,87.254,113.514,87.254L113.514,87.254z"/>
	<path fill="#277F3E" d="M114.991,86.108v0.809c-0.508,0.125-1,0.188-1.477,0.188c-1.414,0-2.121-0.672-2.121-2.016v-3.732h-1.564
		v-0.551l1.564-0.287l0.451-1.682h0.615v1.717h2.566v0.803h-2.566v3.732c0,0.762,0.375,1.143,1.125,1.143
		C113.948,86.231,114.417,86.19,114.991,86.108z"/>
	<path fill="#277F3E" d="M117.612,87.137v-6.733h1.151l0.106,0.969c0.255-0.342,0.528-0.6,0.814-0.767
		c0.361-0.212,0.809-0.319,1.33-0.319c0.477,0,0.967,0.092,1.458,0.273l0.132,0.048l-0.372,1.261l-0.15-0.055
		c-0.461-0.169-0.886-0.255-1.261-0.255c-0.591,0-1.051,0.167-1.365,0.496c-0.316,0.331-0.477,0.823-0.477,1.464v3.619H117.612z"/>
	<path fill="#277F3E" d="M122.42,80.7l-0.287,0.973c-0.48-0.176-0.918-0.264-1.313-0.264c-0.637,0-1.128,0.181-1.474,0.542
		s-0.519,0.884-0.519,1.567v3.469h-1.066v-6.434h0.867l0.129,1.178h0.047c0.297-0.465,0.615-0.797,0.955-0.996
		s0.758-0.299,1.254-0.299C121.475,80.437,121.944,80.524,122.42,80.7z"/>
	<path fill="#277F3E" d="M126.645,87.254c-1.62,0-2.441-0.841-2.441-2.5v-4.351h1.366v4.292c0,0.937,0.392,1.374,1.233,1.374
		c0.586,0,0.999-0.159,1.26-0.486c0.266-0.333,0.401-0.901,0.401-1.69v-3.49h1.366v6.733h-1.136l-0.131-0.712
		C128.175,86.957,127.513,87.254,126.645,87.254L126.645,87.254z"/>
	<path fill="#277F3E" d="M128.819,86.987l-0.158-0.861h-0.059c-0.41,0.652-1.063,0.979-1.957,0.979c-1.527,0-2.291-0.783-2.291-2.35
		v-4.201h1.066v4.143c0,1.016,0.461,1.523,1.383,1.523c0.629,0,1.088-0.181,1.377-0.542s0.434-0.956,0.434-1.784v-3.34h1.066v6.434
		H128.819z"/>
	<path fill="#277F3E" d="M134.555,87.254c-0.994,0-1.803-0.31-2.404-0.921c-0.6-0.61-0.904-1.457-0.904-2.516
		c0-1.071,0.279-1.936,0.831-2.568c0.557-0.639,1.31-0.962,2.237-0.962c0.867,0,1.571,0.28,2.092,0.832
		c0.519,0.55,0.782,1.288,0.782,2.195v0.812h-4.529c0.07,1.276,0.68,1.897,1.86,1.897c0.737,0,1.447-0.146,2.108-0.433l0.209-0.091
		v1.263l-0.088,0.04C136.085,87.102,135.347,87.254,134.555,87.254L134.555,87.254z M135.732,82.958
		c-0.042-1-0.515-1.487-1.441-1.487c-0.942,0-1.465,0.487-1.597,1.487H135.732z"/>
	<path fill="#277F3E" d="M137.04,83.976h-4.535c0.031,1.465,0.703,2.197,2.016,2.197c0.762,0,1.484-0.148,2.168-0.445v0.938
		c-0.648,0.293-1.359,0.439-2.133,0.439c-0.957,0-1.723-0.292-2.297-0.876s-0.861-1.388-0.861-2.411c0-1.039,0.265-1.862,0.794-2.47
		s1.237-0.911,2.124-0.911c0.828,0,1.489,0.262,1.983,0.785s0.741,1.221,0.741,2.092V83.976z M132.528,83.108h3.357
		c0-1.191-0.531-1.787-1.594-1.787C133.217,81.321,132.629,81.917,132.528,83.108z"/>
</g>
<g>
	<path fill="#277F3E" d="M108.035,44.137v-5.631h-1.857v-0.93l1.857-0.193v-0.427c0-0.792,0.193-1.381,0.573-1.749
		c0.378-0.366,1.003-0.552,1.856-0.552c0.516,0,1.026,0.071,1.518,0.211l0.145,0.041l-0.322,1.124l-0.143-0.038
		c-0.392-0.105-0.787-0.159-1.174-0.159c-0.433,0-0.725,0.082-0.866,0.242c-0.146,0.166-0.221,0.458-0.221,0.868v0.459h2.279v1.103
		h-2.279v5.631H108.035z"/>
	<path fill="#277F3E" d="M111.531,38.356h-2.279v5.631h-1.066v-5.631h-1.857v-0.645l1.857-0.193v-0.563
		c0-0.754,0.176-1.301,0.527-1.641s0.936-0.51,1.752-0.51c0.504,0,0.996,0.068,1.477,0.205l-0.24,0.838
		c-0.406-0.109-0.811-0.164-1.213-0.164c-0.48,0-0.807,0.098-0.979,0.293s-0.258,0.518-0.258,0.967v0.609h2.279V38.356z"/>
	<path fill="#277F3E" d="M115.445,44.254c-0.673,0-1.211-0.183-1.599-0.544c-0.392-0.364-0.59-0.876-0.59-1.522
		c0-1.387,1.054-2.124,3.133-2.189l1.044-0.036v-0.259c0-0.841-0.407-1.233-1.28-1.233c-0.55,0-1.176,0.157-1.86,0.467L114.158,39
		l-0.493-1.071l0.131-0.064c0.783-0.383,1.56-0.578,2.31-0.578c0.919,0,1.6,0.184,2.022,0.546c0.429,0.368,0.647,0.956,0.647,1.749
		v4.556h-1.035l-0.188-0.773c-0.232,0.286-0.523,0.52-0.82,0.657C116.397,44.176,115.964,44.254,115.445,44.254L115.445,44.254z
		 M116.629,41.032c-0.735,0.03-1.257,0.143-1.553,0.336c-0.278,0.181-0.413,0.454-0.413,0.833c0,0.609,0.325,0.893,1.022,0.893
		c0.532,0,0.96-0.147,1.272-0.438c0.313-0.292,0.465-0.695,0.465-1.235v-0.423L116.629,41.032z"/>
	<path fill="#277F3E" d="M117.859,43.987l-0.217-0.891h-0.047c-0.301,0.379-0.609,0.642-0.926,0.788s-0.725,0.22-1.225,0.22
		c-0.637,0-1.136-0.168-1.497-0.504s-0.542-0.807-0.542-1.412c0-1.297,0.996-1.977,2.988-2.039l1.189-0.041v-0.404
		c0-0.922-0.477-1.383-1.43-1.383c-0.574,0-1.215,0.16-1.922,0.48l-0.369-0.803c0.766-0.375,1.514-0.563,2.244-0.563
		c0.887,0,1.528,0.17,1.925,0.51s0.595,0.885,0.595,1.635v4.406H117.859z M117.572,40.841l-0.949,0.041
		c-0.766,0.031-1.309,0.151-1.629,0.36s-0.48,0.528-0.48,0.958c0,0.695,0.391,1.043,1.172,1.043c0.574,0,1.032-0.159,1.374-0.478
		s0.513-0.767,0.513-1.345V40.841z"/>
	<polygon fill="#277F3E" points="120.768,44.137 120.768,43.125 122.783,43.008 122.783,35.847 121.213,35.724 121.213,34.72 
		124.155,34.72 124.155,43.008 126.218,43.125 126.218,44.137 	"/>
	<path fill="#277F3E" d="M122.933,35.708l-1.57-0.123V34.87h2.643v8.279l2.063,0.117v0.721h-5.15v-0.721l2.016-0.117V35.708z"/>
	<path fill="#277F3E" d="M130.404,44.254c-0.99,0-1.753-0.142-2.269-0.422l-0.078-0.042v-1.293l0.211,0.094
		c0.731,0.326,1.44,0.491,2.107,0.491c1.461,0,1.461-0.602,1.461-0.799c0-0.178-0.077-0.331-0.235-0.466
		c-0.122-0.104-0.442-0.292-1.277-0.594c-0.945-0.353-1.528-0.673-1.784-0.979c-0.258-0.31-0.389-0.68-0.389-1.101
		c0-0.581,0.241-1.043,0.718-1.374c0.459-0.319,1.096-0.481,1.893-0.481c0.791,0,1.538,0.15,2.222,0.446l0.134,0.058l-0.462,1.147
		l-0.139-0.055c-0.69-0.273-1.3-0.412-1.814-0.412c-1.233,0-1.233,0.474-1.233,0.629c0,0.189,0.077,0.336,0.234,0.45
		c0.185,0.134,0.63,0.327,1.325,0.575c0.856,0.312,1.413,0.615,1.703,0.926c0.297,0.318,0.447,0.713,0.447,1.172
		c0,0.634-0.251,1.139-0.747,1.501C131.951,44.076,131.269,44.254,130.404,44.254L130.404,44.254z"/>
	<path fill="#277F3E" d="M128.207,43.7v-0.973c0.754,0.336,1.477,0.504,2.168,0.504c1.074,0,1.611-0.316,1.611-0.949
		c0-0.223-0.096-0.416-0.287-0.58s-0.633-0.371-1.324-0.621c-0.91-0.34-1.483-0.651-1.72-0.935s-0.354-0.618-0.354-1.005
		c0-0.531,0.218-0.948,0.653-1.251s1.038-0.454,1.808-0.454c0.773,0,1.494,0.145,2.162,0.434l-0.352,0.873
		c-0.711-0.281-1.334-0.422-1.869-0.422c-0.922,0-1.383,0.26-1.383,0.779c0,0.238,0.099,0.429,0.296,0.571s0.651,0.341,1.362,0.595
		c0.824,0.301,1.372,0.597,1.644,0.888s0.407,0.647,0.407,1.069c0,0.586-0.229,1.046-0.686,1.38s-1.104,0.501-1.939,0.501
		C129.435,44.104,128.703,43.97,128.207,43.7z"/>
	<path fill="#277F3E" d="M138.156,44.254c-0.994,0-1.803-0.31-2.404-0.921c-0.6-0.61-0.904-1.457-0.904-2.516
		c0-1.071,0.279-1.936,0.831-2.568c0.557-0.639,1.31-0.962,2.237-0.962c0.867,0,1.571,0.28,2.092,0.832
		c0.519,0.55,0.782,1.288,0.782,2.195v0.812h-4.529c0.07,1.276,0.68,1.897,1.86,1.897c0.737,0,1.447-0.146,2.108-0.433l0.209-0.091
		v1.263l-0.088,0.04C139.686,44.102,138.947,44.254,138.156,44.254L138.156,44.254z M139.333,39.958
		c-0.042-1-0.515-1.487-1.441-1.487c-0.942,0-1.465,0.487-1.597,1.487H139.333z"/>
	<path fill="#277F3E" d="M140.64,40.976h-4.535c0.031,1.465,0.703,2.197,2.016,2.197c0.762,0,1.484-0.148,2.168-0.445v0.938
		c-0.648,0.293-1.359,0.439-2.133,0.439c-0.957,0-1.723-0.292-2.297-0.876s-0.861-1.388-0.861-2.411c0-1.039,0.265-1.862,0.794-2.47
		s1.237-0.911,2.124-0.911c0.828,0,1.489,0.262,1.983,0.785s0.741,1.221,0.741,2.092V40.976z M136.128,40.108h3.357
		c0-1.191-0.531-1.787-1.594-1.787C136.818,38.321,136.23,38.917,136.128,40.108z"/>
	<g>
		<path fill="#277F3E" d="M41.754,64.15v-1.012l2.016-0.117v-4.472l-1.576-0.123v-1.009h2.942v5.604l2.063,0.117v1.012H41.754z
			 M44.459,56.41c-0.501,0-0.777-0.292-0.777-0.824c0-0.527,0.276-0.818,0.777-0.818c0.497,0,0.771,0.291,0.771,0.818
			c0,0.27-0.079,0.478-0.234,0.618C44.845,56.34,44.665,56.41,44.459,56.41L44.459,56.41z"/>
		<path fill="#277F3E" d="M43.92,58.41l-1.576-0.123v-0.721h2.643v5.596l2.063,0.117V64h-5.145v-0.721l2.016-0.117V58.41z
			 M44.459,54.918c0.414,0,0.621,0.223,0.621,0.668c0,0.227-0.062,0.396-0.185,0.507s-0.269,0.167-0.437,0.167
			c-0.418,0-0.627-0.225-0.627-0.674C43.832,55.141,44.041,54.918,44.459,54.918z"/>
		<path fill="#277F3E" d="M50.573,64.15v-5.631h-1.857v-0.93l1.857-0.193v-0.427c0-0.792,0.193-1.381,0.573-1.749
			c0.378-0.366,1.003-0.552,1.856-0.552c0.516,0,1.026,0.071,1.518,0.211l0.145,0.041l-0.322,1.124l-0.143-0.038
			c-0.392-0.105-0.787-0.159-1.174-0.159c-0.433,0-0.725,0.082-0.866,0.242c-0.146,0.166-0.221,0.458-0.221,0.868v0.459h2.279v1.103
			h-2.279v5.631H50.573z"/>
		<path fill="#277F3E" d="M54.068,58.369h-2.279V64h-1.066v-5.631h-1.857v-0.645l1.857-0.193v-0.563
			c0-0.754,0.176-1.301,0.527-1.641s0.936-0.51,1.752-0.51c0.504,0,0.996,0.068,1.477,0.205l-0.24,0.838
			c-0.406-0.109-0.811-0.164-1.213-0.164c-0.48,0-0.807,0.098-0.979,0.293s-0.258,0.518-0.258,0.967v0.609h2.279V58.369z"/>
		<path fill="#277F3E" d="M58.688,122.267c-0.994,0-1.803-0.31-2.404-0.921c-0.6-0.61-0.904-1.457-0.904-2.516
			c0-1.071,0.279-1.936,0.831-2.568c0.557-0.639,1.31-0.962,2.237-0.962c0.867,0,1.571,0.28,2.092,0.832
			c0.519,0.55,0.782,1.288,0.782,2.195v0.812h-4.529c0.07,1.276,0.68,1.897,1.86,1.897c0.737,0,1.447-0.146,2.108-0.433l0.209-0.091
			v1.263l-0.088,0.04C60.217,122.115,59.479,122.267,58.688,122.267L58.688,122.267z M59.865,117.971
			c-0.042-1-0.515-1.487-1.441-1.487c-0.942,0-1.465,0.487-1.597,1.487H59.865z"/>
		<path fill="#277F3E" d="M61.172,118.988h-4.535c0.031,1.465,0.703,2.197,2.016,2.197c0.762,0,1.484-0.148,2.168-0.445v0.938
			c-0.648,0.293-1.359,0.439-2.133,0.439c-0.957,0-1.723-0.292-2.297-0.876s-0.861-1.388-0.861-2.411
			c0-1.039,0.265-1.862,0.794-2.47s1.237-0.911,2.124-0.911c0.828,0,1.489,0.262,1.983,0.785s0.741,1.221,0.741,2.092V118.988z
			 M56.66,118.121h3.357c0-1.191-0.531-1.787-1.594-1.787C57.35,116.334,56.762,116.93,56.66,118.121z"/>
		<polygon fill="#277F3E" points="62.903,122.15 62.903,121.138 64.918,121.021 64.918,113.859 63.348,113.736 63.348,112.733 
			66.291,112.733 66.291,121.021 68.353,121.138 68.353,122.15 		"/>
		<path fill="#277F3E" d="M65.068,113.721l-1.57-0.123v-0.715h2.643v8.279l2.063,0.117V122h-5.15v-0.721l2.016-0.117V113.721z"/>
		<path fill="#277F3E" d="M72.539,122.267c-0.99,0-1.753-0.142-2.269-0.422l-0.078-0.042v-1.293l0.211,0.094
			c0.731,0.326,1.44,0.491,2.107,0.491c1.461,0,1.461-0.602,1.461-0.799c0-0.178-0.077-0.331-0.235-0.466
			c-0.122-0.104-0.442-0.292-1.277-0.594c-0.945-0.353-1.528-0.673-1.784-0.979c-0.258-0.31-0.389-0.68-0.389-1.101
			c0-0.581,0.241-1.043,0.718-1.374c0.459-0.319,1.096-0.481,1.893-0.481c0.791,0,1.538,0.15,2.222,0.446l0.134,0.058l-0.462,1.147
			l-0.139-0.055c-0.69-0.273-1.3-0.412-1.814-0.412c-1.233,0-1.233,0.474-1.233,0.629c0,0.189,0.077,0.336,0.234,0.45
			c0.185,0.134,0.63,0.327,1.325,0.575c0.856,0.312,1.413,0.615,1.703,0.926c0.297,0.318,0.447,0.713,0.447,1.172
			c0,0.634-0.251,1.139-0.747,1.501C74.086,122.089,73.404,122.267,72.539,122.267L72.539,122.267z"/>
		<path fill="#277F3E" d="M70.342,121.713v-0.973c0.754,0.336,1.477,0.504,2.168,0.504c1.074,0,1.611-0.316,1.611-0.949
			c0-0.223-0.096-0.416-0.287-0.58s-0.633-0.371-1.324-0.621c-0.91-0.34-1.483-0.651-1.72-0.935s-0.354-0.618-0.354-1.005
			c0-0.531,0.218-0.948,0.653-1.251s1.038-0.454,1.808-0.454c0.773,0,1.494,0.145,2.162,0.434l-0.352,0.873
			c-0.711-0.281-1.334-0.422-1.869-0.422c-0.922,0-1.383,0.26-1.383,0.779c0,0.238,0.099,0.429,0.296,0.571s0.651,0.341,1.362,0.595
			c0.824,0.301,1.372,0.597,1.644,0.888s0.407,0.647,0.407,1.069c0,0.586-0.229,1.046-0.686,1.38s-1.104,0.501-1.939,0.501
			C71.57,122.117,70.838,121.982,70.342,121.713z"/>
		<path fill="#277F3E" d="M80.291,122.267c-0.994,0-1.803-0.31-2.404-0.921c-0.6-0.61-0.904-1.457-0.904-2.516
			c0-1.071,0.279-1.936,0.831-2.568c0.557-0.639,1.31-0.962,2.237-0.962c0.867,0,1.571,0.28,2.092,0.832
			c0.519,0.55,0.782,1.288,0.782,2.195v0.812h-4.529c0.07,1.276,0.68,1.897,1.86,1.897c0.737,0,1.447-0.146,2.108-0.433l0.209-0.091
			v1.263l-0.088,0.04C81.821,122.115,81.083,122.267,80.291,122.267L80.291,122.267z M81.468,117.971
			c-0.042-1-0.515-1.487-1.441-1.487c-0.942,0-1.465,0.487-1.597,1.487H81.468z"/>
		<path fill="#277F3E" d="M82.775,118.988H78.24c0.031,1.465,0.703,2.197,2.016,2.197c0.762,0,1.484-0.148,2.168-0.445v0.938
			c-0.648,0.293-1.359,0.439-2.133,0.439c-0.957,0-1.723-0.292-2.297-0.876s-0.861-1.388-0.861-2.411
			c0-1.039,0.265-1.862,0.794-2.47s1.237-0.911,2.124-0.911c0.828,0,1.489,0.262,1.983,0.785s0.741,1.221,0.741,2.092V118.988z
			 M78.264,118.121h3.357c0-1.191-0.531-1.787-1.594-1.787C78.953,116.334,78.365,116.93,78.264,118.121z"/>
	</g>
</g>
<g>
	<g>
		<line fill="none" stroke="#000000" stroke-width="2" x1="101.75" y1="77.667" x2="101.75" y2="91.667"/>
		<polygon points="97.686,89.634 98.896,88.423 101.75,91.277 104.605,88.423 105.814,89.634 101.75,93.698 		"/>
	</g>
</g>
<g>
	<g>
		<polyline fill="none" stroke="#000000" stroke-width="2" points="69.75,133 26.083,133 26.083,32.667 101.75,32.667 
			101.75,46.167 		"/>
		<polygon points="67.717,137.064 66.506,135.854 69.36,133 66.506,130.145 67.717,128.936 71.781,133 		"/>
	</g>
</g>
<g>
</g>
<g>
</g>
</svg>
