<?xml version="1.0" encoding="utf-8"?>
<!-- Generator: Adobe Illustrator 14.0.0, SVG Export Plug-In . SVG Version: 6.00 Build 43363)  -->
<!DOCTYPE svg PUBLIC "-//W3C//DTD SVG 1.1//EN" "http://www.w3.org/Graphics/SVG/1.1/DTD/svg11.dtd">
<svg version="1.1" id="Layer_1" xmlns="http://www.w3.org/2000/svg" xmlns:xlink="http://www.w3.org/1999/xlink" x="0px" y="0px"
	 width="198px" height="166px" viewBox="0 0 198 166" enable-background="new 0 0 198 166" xml:space="preserve">
<rect x="6" y="11.5" fill="#F7F8F9" width="185" height="149"/>
<rect x="68" y="49" fill="#BCBEC0" width="66" height="22"/>
<g>
	<path d="M65.934,55.434h1.131c-1.754,1.469-2.631,3.213-2.631,5.232c0,2.035,0.873,3.779,2.619,5.232h-1.119
		c-1.734-1.379-2.602-3.119-2.602-5.221C63.332,58.6,64.199,56.852,65.934,55.434z"/>
	<path d="M75.021,57.795l-0.363,0.926c-0.586-0.223-1.109-0.334-1.57-0.334c-1.449,0-2.174,0.807-2.174,2.42
		c0,1.586,0.705,2.379,2.115,2.379c0.613,0,1.24-0.121,1.881-0.363v0.938c-0.523,0.238-1.166,0.357-1.928,0.357
		c-1.004,0-1.783-0.284-2.338-0.853s-0.832-1.384-0.832-2.446c0-1.098,0.283-1.934,0.85-2.508s1.363-0.861,2.391-0.861
		C73.748,57.449,74.404,57.564,75.021,57.795z"/>
	<path d="M79.58,64.117c-0.844,0-1.538-0.304-2.083-0.911s-0.817-1.419-0.817-2.435c0-1.027,0.265-1.838,0.794-2.432
		s1.243-0.891,2.142-0.891c0.852,0,1.549,0.303,2.092,0.908s0.814,1.41,0.814,2.414c0,1.035-0.268,1.852-0.803,2.449
		S80.471,64.117,79.58,64.117z M79.604,63.232c1.211,0,1.816-0.82,1.816-2.461c0-1.625-0.609-2.438-1.828-2.438
		c-1.207,0-1.811,0.813-1.811,2.438C77.781,62.412,78.389,63.232,79.604,63.232z"/>
	<path d="M88.404,64v-4.143c0-1.016-0.465-1.523-1.395-1.523c-1.199,0-1.799,0.777-1.799,2.332V64h-1.066v-6.434h0.861l0.158,0.867
		h0.059c0.402-0.656,1.059-0.984,1.969-0.984c1.52,0,2.279,0.783,2.279,2.35V64H88.404z"/>
	<path d="M95.664,63.139h-0.047c-0.441,0.652-1.07,0.979-1.887,0.979c-0.785,0-1.401-0.292-1.849-0.876s-0.671-1.399-0.671-2.446
		c0-1.055,0.225-1.876,0.674-2.464s1.064-0.882,1.846-0.882c0.805,0,1.434,0.313,1.887,0.938h0.07
		c-0.047-0.504-0.07-0.82-0.07-0.949v-2.555h1.066V64h-0.861L95.664,63.139z M95.617,61.035v-0.24c0-0.887-0.136-1.519-0.407-1.896
		s-0.704-0.565-1.298-0.565c-1.063,0-1.594,0.824-1.594,2.473c0,1.617,0.535,2.426,1.605,2.426c0.594,0,1.021-0.173,1.28-0.519
		S95.602,61.809,95.617,61.035z"/>
	<path d="M100.779,58.41l-1.576-0.123v-0.721h2.643v5.596l2.063,0.117V64h-5.145v-0.721l2.016-0.117V58.41z M101.318,54.918
		c0.414,0,0.621,0.223,0.621,0.668c0,0.227-0.062,0.396-0.185,0.507s-0.269,0.167-0.437,0.167c-0.418,0-0.627-0.225-0.627-0.674
		C100.691,55.141,100.9,54.918,101.318,54.918z"/>
	<path d="M110.787,63.121v0.809c-0.508,0.125-1,0.188-1.477,0.188c-1.414,0-2.121-0.672-2.121-2.016v-3.732h-1.564v-0.551
		l1.564-0.287l0.451-1.682h0.615v1.717h2.566v0.803h-2.566v3.732c0,0.762,0.375,1.143,1.125,1.143
		C109.744,63.244,110.213,63.203,110.787,63.121z"/>
	<path d="M115.182,58.41l-1.576-0.123v-0.721h2.643v5.596l2.063,0.117V64h-5.145v-0.721l2.016-0.117V58.41z M115.721,54.918
		c0.414,0,0.621,0.223,0.621,0.668c0,0.227-0.062,0.396-0.185,0.507s-0.269,0.167-0.437,0.167c-0.418,0-0.627-0.225-0.627-0.674
		C115.094,55.141,115.303,54.918,115.721,54.918z"/>
	<path d="M122.787,64.117c-0.844,0-1.538-0.304-2.083-0.911s-0.817-1.419-0.817-2.435c0-1.027,0.265-1.838,0.794-2.432
		s1.243-0.891,2.142-0.891c0.852,0,1.549,0.303,2.092,0.908s0.814,1.41,0.814,2.414c0,1.035-0.268,1.852-0.803,2.449
		S123.678,64.117,122.787,64.117z M122.811,63.232c1.211,0,1.816-0.82,1.816-2.461c0-1.625-0.609-2.438-1.828-2.438
		c-1.207,0-1.811,0.813-1.811,2.438C120.988,62.412,121.596,63.232,122.811,63.232z"/>
	<path d="M131.611,64v-4.143c0-1.016-0.465-1.523-1.395-1.523c-1.199,0-1.799,0.777-1.799,2.332V64h-1.066v-6.434h0.861l0.158,0.867
		h0.059c0.402-0.656,1.059-0.984,1.969-0.984c1.52,0,2.279,0.783,2.279,2.35V64H131.611z"/>
	<path d="M136.48,65.898h-1.113c1.742-1.449,2.613-3.193,2.613-5.232c0-2.023-0.875-3.768-2.625-5.232h1.125
		c1.738,1.41,2.607,3.158,2.607,5.244C139.088,62.787,138.219,64.527,136.48,65.898z"/>
	<path d="M152.383,64.094c0,0.316,0.109,0.548,0.328,0.694s0.609,0.224,1.172,0.231v0.879c-1.711-0.023-2.566-0.596-2.566-1.717
		v-1.957c0-0.738-0.66-1.107-1.98-1.107v-0.908c1.32,0,1.98-0.369,1.98-1.107V57.15c0-1.121,0.855-1.693,2.566-1.717v0.873
		c-0.563,0.008-0.953,0.085-1.172,0.231s-0.328,0.378-0.328,0.694v1.945c0,0.809-0.455,1.293-1.365,1.453v0.07
		c0.91,0.16,1.365,0.645,1.365,1.453V64.094z"/>
	<path d="M77.189,106.913v-0.973c0.754,0.336,1.477,0.504,2.168,0.504c1.074,0,1.611-0.316,1.611-0.949
		c0-0.223-0.096-0.416-0.287-0.58s-0.633-0.371-1.324-0.621c-0.91-0.34-1.483-0.651-1.72-0.935s-0.354-0.618-0.354-1.005
		c0-0.531,0.218-0.948,0.653-1.251s1.038-0.454,1.808-0.454c0.773,0,1.494,0.145,2.162,0.434l-0.352,0.873
		c-0.711-0.281-1.334-0.422-1.869-0.422c-0.922,0-1.383,0.26-1.383,0.779c0,0.238,0.099,0.429,0.296,0.571s0.651,0.341,1.362,0.595
		c0.824,0.301,1.372,0.597,1.644,0.888s0.407,0.647,0.407,1.069c0,0.586-0.229,1.046-0.686,1.38s-1.104,0.501-1.939,0.501
		C78.418,107.317,77.686,107.183,77.189,106.913z"/>
	<path d="M89.178,106.321v0.809c-0.508,0.125-1,0.188-1.477,0.188c-1.414,0-2.121-0.672-2.121-2.016v-3.732h-1.564v-0.551
		l1.564-0.287l0.451-1.682h0.615v1.717h2.566v0.803h-2.566v3.732c0,0.762,0.375,1.143,1.125,1.143
		C88.135,106.444,88.604,106.403,89.178,106.321z"/>
	<path d="M95.646,107.2l-0.217-0.891h-0.047c-0.301,0.379-0.609,0.642-0.926,0.788s-0.725,0.22-1.225,0.22
		c-0.637,0-1.136-0.168-1.497-0.504s-0.542-0.807-0.542-1.412c0-1.297,0.996-1.977,2.988-2.039l1.189-0.041v-0.404
		c0-0.922-0.477-1.383-1.43-1.383c-0.574,0-1.215,0.16-1.922,0.48l-0.369-0.803c0.766-0.375,1.514-0.563,2.244-0.563
		c0.887,0,1.528,0.17,1.925,0.51s0.595,0.885,0.595,1.635v4.406H95.646z M95.359,104.054l-0.949,0.041
		c-0.766,0.031-1.309,0.151-1.629,0.36s-0.48,0.528-0.48,0.958c0,0.695,0.391,1.043,1.172,1.043c0.574,0,1.032-0.159,1.374-0.478
		s0.513-0.767,0.513-1.345V104.054z"/>
	<path d="M103.58,106.321v0.809c-0.508,0.125-1,0.188-1.477,0.188c-1.414,0-2.121-0.672-2.121-2.016v-3.732h-1.564v-0.551
		l1.564-0.287l0.451-1.682h0.615v1.717h2.566v0.803h-2.566v3.732c0,0.762,0.375,1.143,1.125,1.143
		C102.537,106.444,103.006,106.403,103.58,106.321z"/>
	<path d="M111.227,104.188h-4.535c0.031,1.465,0.703,2.197,2.016,2.197c0.762,0,1.484-0.148,2.168-0.445v0.938
		c-0.648,0.293-1.359,0.439-2.133,0.439c-0.957,0-1.723-0.292-2.297-0.876s-0.861-1.388-0.861-2.411c0-1.039,0.265-1.862,0.794-2.47
		s1.237-0.911,2.124-0.911c0.828,0,1.489,0.262,1.983,0.785s0.741,1.221,0.741,2.092V104.188z M106.715,103.321h3.357
		c0-1.191-0.531-1.787-1.594-1.787C107.404,101.534,106.816,102.13,106.715,103.321z"/>
	<path d="M117.73,107.2v-4.143c0-0.57-0.052-0.967-0.155-1.189s-0.276-0.334-0.519-0.334c-0.34,0-0.587,0.162-0.741,0.486
		s-0.231,0.867-0.231,1.629v3.551h-0.943v-4.143c0-1.016-0.244-1.523-0.732-1.523c-0.328,0-0.563,0.155-0.703,0.466
		s-0.211,0.933-0.211,1.866v3.334h-0.949v-6.434h0.744l0.158,0.867h0.059c0.262-0.656,0.654-0.984,1.178-0.984
		c0.637,0,1.053,0.355,1.248,1.066h0.035c0.297-0.711,0.725-1.066,1.283-1.066c0.5,0,0.863,0.181,1.09,0.542s0.34,0.964,0.34,1.808
		v4.201H117.73z"/>
	<path d="M125.629,104.188h-4.535c0.031,1.465,0.703,2.197,2.016,2.197c0.762,0,1.484-0.148,2.168-0.445v0.938
		c-0.648,0.293-1.359,0.439-2.133,0.439c-0.957,0-1.723-0.292-2.297-0.876s-0.861-1.388-0.861-2.411c0-1.039,0.265-1.862,0.794-2.47
		s1.237-0.911,2.124-0.911c0.828,0,1.489,0.262,1.983,0.785s0.741,1.221,0.741,2.092V104.188z M121.117,103.321h3.357
		c0-1.191-0.531-1.787-1.594-1.787C121.807,101.534,121.219,102.13,121.117,103.321z"/>
	<path d="M131.605,107.2v-4.143c0-1.016-0.465-1.523-1.395-1.523c-1.199,0-1.799,0.777-1.799,2.332v3.334h-1.066v-6.434h0.861
		l0.158,0.867h0.059c0.402-0.656,1.059-0.984,1.969-0.984c1.52,0,2.279,0.783,2.279,2.35v4.201H131.605z"/>
	<path d="M139.586,106.321v0.809c-0.508,0.125-1,0.188-1.477,0.188c-1.414,0-2.121-0.672-2.121-2.016v-3.732h-1.564v-0.551
		l1.564-0.287l0.451-1.682h0.615v1.717h2.566v0.803h-2.566v3.732c0,0.762,0.375,1.143,1.125,1.143
		C138.543,106.444,139.012,106.403,139.586,106.321z"/>
	<path d="M142,106.913v-0.973c0.754,0.336,1.477,0.504,2.168,0.504c1.074,0,1.611-0.316,1.611-0.949c0-0.223-0.096-0.416-0.287-0.58
		s-0.633-0.371-1.324-0.621c-0.91-0.34-1.483-0.651-1.72-0.935s-0.354-0.618-0.354-1.005c0-0.531,0.218-0.948,0.653-1.251
		s1.038-0.454,1.808-0.454c0.773,0,1.494,0.145,2.162,0.434l-0.352,0.873c-0.711-0.281-1.334-0.422-1.869-0.422
		c-0.922,0-1.383,0.26-1.383,0.779c0,0.238,0.099,0.429,0.296,0.571s0.651,0.341,1.362,0.595c0.824,0.301,1.372,0.597,1.644,0.888
		s0.407,0.647,0.407,1.069c0,0.586-0.229,1.046-0.686,1.38s-1.104,0.501-1.939,0.501C143.229,107.317,142.496,107.183,142,106.913z"
		/>
	<path d="M152.166,105.806l0.082,0.135c-0.199,0.77-0.543,1.705-1.031,2.807h-0.803c0.242-0.996,0.438-1.977,0.586-2.941H152.166z
		 M151.65,100.603c0.496,0,0.744,0.271,0.744,0.814s-0.248,0.814-0.744,0.814s-0.744-0.271-0.744-0.814
		S151.154,100.603,151.65,100.603z"/>
	<path d="M42.83,119.754c0-0.809,0.457-1.293,1.371-1.453v-0.07c-0.914-0.16-1.371-0.645-1.371-1.453v-1.945
		c0-0.316-0.11-0.549-0.331-0.697s-0.61-0.225-1.169-0.229v-0.873c1.715,0.023,2.572,0.596,2.572,1.717v1.951
		c0,0.738,0.66,1.107,1.98,1.107v0.908c-1.32,0-1.98,0.369-1.98,1.107v1.957c0,1.121-0.857,1.693-2.572,1.717v-0.879
		c0.559-0.004,0.948-0.08,1.169-0.229s0.331-0.381,0.331-0.697V119.754z"/>
</g>
<g>
	<path fill="#277F3E" d="M41.004,64.15v-1.012l2.016-0.117v-4.472l-1.576-0.123v-1.009h2.942v5.604l2.063,0.117v1.012H41.004z
		 M43.709,56.41c-0.501,0-0.777-0.292-0.777-0.824c0-0.527,0.276-0.818,0.777-0.818c0.497,0,0.771,0.291,0.771,0.818
		c0,0.27-0.079,0.478-0.234,0.618C44.095,56.34,43.915,56.41,43.709,56.41L43.709,56.41z"/>
	<path fill="#277F3E" d="M43.17,58.41l-1.576-0.123v-0.721h2.643v5.596l2.063,0.117V64h-5.145v-0.721l2.016-0.117V58.41z
		 M43.709,54.918c0.414,0,0.621,0.223,0.621,0.668c0,0.227-0.062,0.396-0.185,0.507s-0.269,0.167-0.437,0.167
		c-0.418,0-0.627-0.225-0.627-0.674C43.082,55.141,43.291,54.918,43.709,54.918z"/>
	<path fill="#277F3E" d="M49.823,64.15v-5.631h-1.857v-0.93l1.857-0.193v-0.427c0-0.792,0.193-1.381,0.573-1.749
		c0.378-0.366,1.003-0.552,1.856-0.552c0.516,0,1.026,0.071,1.518,0.211l0.145,0.041l-0.322,1.124l-0.143-0.038
		c-0.392-0.105-0.787-0.159-1.174-0.159c-0.433,0-0.725,0.082-0.866,0.242c-0.146,0.166-0.221,0.458-0.221,0.868v0.459h2.279v1.103
		h-2.279v5.631H49.823z"/>
	<path fill="#277F3E" d="M53.318,58.369h-2.279V64h-1.066v-5.631h-1.857v-0.645l1.857-0.193v-0.563c0-0.754,0.176-1.301,0.527-1.641
		s0.936-0.51,1.752-0.51c0.504,0,0.996,0.068,1.477,0.205l-0.24,0.838c-0.406-0.109-0.811-0.164-1.213-0.164
		c-0.48,0-0.807,0.098-0.979,0.293s-0.258,0.518-0.258,0.967v0.609h2.279V58.369z"/>
</g>
<g>
	<g>
		<line fill="none" stroke="#000000" stroke-width="2" x1="101" y1="77.667" x2="101" y2="91.667"/>
		<polygon points="96.936,89.634 98.146,88.423 101,91.277 103.855,88.423 105.064,89.634 101,93.698 		"/>
	</g>
</g>
<g>
	<g>
		<polyline fill="none" stroke="#000000" stroke-width="2" points="43.333,136.167 25.333,136.167 25.333,32.667 101,32.667 
			101,46.167 		"/>
		<polygon points="41.3,140.231 40.089,139.021 42.944,136.167 40.089,133.312 41.3,132.103 45.365,136.167 		"/>
	</g>
</g>
<g>
	<path fill="#277F3E" d="M113.764,86.254c-1.507,0-2.271-0.729-2.271-2.166v-3.583h-1.564v-0.826l1.594-0.292l0.456-1.701h0.88
		v1.717h2.566v1.103h-2.566v3.583c0,0.677,0.31,0.993,0.975,0.993c0.354,0,0.82-0.041,1.385-0.122l0.171-0.024v1.099l-0.114,0.028
		C114.759,86.19,114.25,86.254,113.764,86.254L113.764,86.254z"/>
	<path fill="#277F3E" d="M115.241,85.108v0.809c-0.508,0.125-1,0.188-1.477,0.188c-1.414,0-2.121-0.672-2.121-2.016v-3.732h-1.564
		v-0.551l1.564-0.287l0.451-1.682h0.615v1.717h2.566v0.803h-2.566v3.732c0,0.762,0.375,1.143,1.125,1.143
		C114.198,85.231,114.667,85.19,115.241,85.108z"/>
	<path fill="#277F3E" d="M117.862,86.137v-6.733h1.151l0.106,0.969c0.255-0.342,0.528-0.6,0.814-0.767
		c0.361-0.212,0.809-0.319,1.33-0.319c0.477,0,0.967,0.092,1.458,0.273l0.132,0.048l-0.372,1.261l-0.15-0.055
		c-0.461-0.169-0.886-0.255-1.261-0.255c-0.591,0-1.051,0.167-1.365,0.496c-0.316,0.331-0.477,0.823-0.477,1.464v3.619H117.862z"/>
	<path fill="#277F3E" d="M122.67,79.7l-0.287,0.973c-0.48-0.176-0.918-0.264-1.313-0.264c-0.637,0-1.128,0.181-1.474,0.542
		s-0.519,0.884-0.519,1.567v3.469h-1.066v-6.434h0.867l0.129,1.178h0.047c0.297-0.465,0.615-0.797,0.955-0.996
		s0.758-0.299,1.254-0.299C121.725,79.437,122.194,79.524,122.67,79.7z"/>
	<path fill="#277F3E" d="M126.895,86.254c-1.62,0-2.441-0.841-2.441-2.5v-4.351h1.366v4.292c0,0.937,0.392,1.374,1.233,1.374
		c0.586,0,0.999-0.159,1.26-0.486c0.266-0.333,0.401-0.901,0.401-1.69v-3.49h1.366v6.733h-1.136l-0.131-0.712
		C128.425,85.957,127.763,86.254,126.895,86.254L126.895,86.254z"/>
	<path fill="#277F3E" d="M129.069,85.987l-0.158-0.861h-0.059c-0.41,0.652-1.063,0.979-1.957,0.979c-1.527,0-2.291-0.783-2.291-2.35
		v-4.201h1.066v4.143c0,1.016,0.461,1.523,1.383,1.523c0.629,0,1.088-0.181,1.377-0.542s0.434-0.956,0.434-1.784v-3.34h1.066v6.434
		H129.069z"/>
	<path fill="#277F3E" d="M134.805,86.254c-0.994,0-1.803-0.31-2.404-0.921c-0.6-0.61-0.904-1.457-0.904-2.516
		c0-1.071,0.279-1.936,0.831-2.568c0.557-0.639,1.31-0.962,2.237-0.962c0.867,0,1.571,0.28,2.092,0.832
		c0.519,0.55,0.782,1.288,0.782,2.195v0.812h-4.529c0.07,1.276,0.68,1.897,1.86,1.897c0.737,0,1.447-0.146,2.108-0.433l0.209-0.091
		v1.263L137,85.802C136.335,86.102,135.597,86.254,134.805,86.254L134.805,86.254z M135.982,81.958
		c-0.042-1-0.515-1.487-1.441-1.487c-0.942,0-1.465,0.487-1.597,1.487H135.982z"/>
	<path fill="#277F3E" d="M137.29,82.976h-4.535c0.031,1.465,0.703,2.197,2.016,2.197c0.762,0,1.484-0.148,2.168-0.445v0.938
		c-0.648,0.293-1.359,0.439-2.133,0.439c-0.957,0-1.723-0.292-2.297-0.876s-0.861-1.388-0.861-2.411c0-1.039,0.265-1.862,0.794-2.47
		s1.237-0.911,2.124-0.911c0.828,0,1.489,0.262,1.983,0.785s0.741,1.221,0.741,2.092V82.976z M132.778,82.108h3.357
		c0-1.191-0.531-1.787-1.594-1.787C133.467,80.321,132.879,80.917,132.778,82.108z"/>
</g>
<g>
	<path fill="#277F3E" d="M108.285,43.137v-5.631h-1.857v-0.93l1.857-0.193v-0.427c0-0.792,0.193-1.381,0.573-1.749
		c0.378-0.366,1.003-0.552,1.856-0.552c0.516,0,1.026,0.071,1.518,0.211l0.145,0.041l-0.322,1.124l-0.143-0.038
		c-0.392-0.105-0.787-0.159-1.174-0.159c-0.433,0-0.725,0.082-0.866,0.242c-0.146,0.166-0.221,0.458-0.221,0.868v0.459h2.279v1.103
		h-2.279v5.631H108.285z"/>
	<path fill="#277F3E" d="M111.781,37.356h-2.279v5.631h-1.066v-5.631h-1.857v-0.645l1.857-0.193v-0.563
		c0-0.754,0.176-1.301,0.527-1.641s0.936-0.51,1.752-0.51c0.504,0,0.996,0.068,1.477,0.205l-0.24,0.838
		c-0.406-0.109-0.811-0.164-1.213-0.164c-0.48,0-0.807,0.098-0.979,0.293s-0.258,0.518-0.258,0.967v0.609h2.279V37.356z"/>
	<path fill="#277F3E" d="M115.695,43.254c-0.673,0-1.211-0.183-1.599-0.544c-0.392-0.364-0.59-0.876-0.59-1.522
		c0-1.387,1.054-2.124,3.133-2.189l1.044-0.036v-0.259c0-0.841-0.407-1.233-1.28-1.233c-0.55,0-1.176,0.157-1.86,0.467L114.408,38
		l-0.493-1.071l0.131-0.064c0.783-0.383,1.56-0.578,2.31-0.578c0.919,0,1.6,0.184,2.022,0.546c0.429,0.368,0.647,0.956,0.647,1.749
		v4.556h-1.035l-0.188-0.773c-0.232,0.286-0.523,0.52-0.82,0.657C116.647,43.176,116.214,43.254,115.695,43.254L115.695,43.254z
		 M116.879,40.032c-0.735,0.03-1.257,0.143-1.553,0.336c-0.278,0.181-0.413,0.454-0.413,0.833c0,0.609,0.325,0.893,1.022,0.893
		c0.532,0,0.96-0.147,1.272-0.438c0.313-0.292,0.465-0.695,0.465-1.235v-0.423L116.879,40.032z"/>
	<path fill="#277F3E" d="M118.109,42.987l-0.217-0.891h-0.047c-0.301,0.379-0.609,0.642-0.926,0.788s-0.725,0.22-1.225,0.22
		c-0.637,0-1.136-0.168-1.497-0.504s-0.542-0.807-0.542-1.412c0-1.297,0.996-1.977,2.988-2.039l1.189-0.041v-0.404
		c0-0.922-0.477-1.383-1.43-1.383c-0.574,0-1.215,0.16-1.922,0.48l-0.369-0.803c0.766-0.375,1.514-0.563,2.244-0.563
		c0.887,0,1.528,0.17,1.925,0.51s0.595,0.885,0.595,1.635v4.406H118.109z M117.822,39.841l-0.949,0.041
		c-0.766,0.031-1.309,0.151-1.629,0.36s-0.48,0.528-0.48,0.958c0,0.695,0.391,1.043,1.172,1.043c0.574,0,1.032-0.159,1.374-0.478
		s0.513-0.767,0.513-1.345V39.841z"/>
	<polygon fill="#277F3E" points="121.018,43.137 121.018,42.125 123.033,42.008 123.033,34.847 121.463,34.724 121.463,33.72 
		124.405,33.72 124.405,42.008 126.468,42.125 126.468,43.137 	"/>
	<path fill="#277F3E" d="M123.183,34.708l-1.57-0.123V33.87h2.643v8.279l2.063,0.117v0.721h-5.15v-0.721l2.016-0.117V34.708z"/>
	<path fill="#277F3E" d="M130.654,43.254c-0.99,0-1.753-0.142-2.269-0.422l-0.078-0.042v-1.293l0.211,0.094
		c0.731,0.326,1.44,0.491,2.107,0.491c1.461,0,1.461-0.602,1.461-0.799c0-0.178-0.077-0.331-0.235-0.466
		c-0.122-0.104-0.442-0.292-1.277-0.594c-0.945-0.353-1.528-0.673-1.784-0.979c-0.258-0.31-0.389-0.68-0.389-1.101
		c0-0.581,0.241-1.043,0.718-1.374c0.459-0.319,1.096-0.481,1.893-0.481c0.791,0,1.538,0.15,2.222,0.446l0.134,0.058l-0.462,1.147
		l-0.139-0.055c-0.69-0.273-1.3-0.412-1.814-0.412c-1.233,0-1.233,0.474-1.233,0.629c0,0.189,0.077,0.336,0.234,0.45
		c0.185,0.134,0.63,0.327,1.325,0.575c0.856,0.312,1.413,0.615,1.703,0.926c0.297,0.318,0.447,0.713,0.447,1.172
		c0,0.634-0.251,1.139-0.747,1.501C132.201,43.076,131.519,43.254,130.654,43.254L130.654,43.254z"/>
	<path fill="#277F3E" d="M128.457,42.7v-0.973c0.754,0.336,1.477,0.504,2.168,0.504c1.074,0,1.611-0.316,1.611-0.949
		c0-0.223-0.096-0.416-0.287-0.58s-0.633-0.371-1.324-0.621c-0.91-0.34-1.483-0.651-1.72-0.935s-0.354-0.618-0.354-1.005
		c0-0.531,0.218-0.948,0.653-1.251s1.038-0.454,1.808-0.454c0.773,0,1.494,0.145,2.162,0.434l-0.352,0.873
		c-0.711-0.281-1.334-0.422-1.869-0.422c-0.922,0-1.383,0.26-1.383,0.779c0,0.238,0.099,0.429,0.296,0.571s0.651,0.341,1.362,0.595
		c0.824,0.301,1.372,0.597,1.644,0.888s0.407,0.647,0.407,1.069c0,0.586-0.229,1.046-0.686,1.38s-1.104,0.501-1.939,0.501
		C129.685,43.104,128.953,42.97,128.457,42.7z"/>
	<path fill="#277F3E" d="M138.406,43.254c-0.994,0-1.803-0.31-2.404-0.921c-0.6-0.61-0.904-1.457-0.904-2.516
		c0-1.071,0.279-1.936,0.831-2.568c0.557-0.639,1.31-0.962,2.237-0.962c0.867,0,1.571,0.28,2.092,0.832
		c0.519,0.55,0.782,1.288,0.782,2.195v0.812h-4.529c0.07,1.276,0.68,1.897,1.86,1.897c0.737,0,1.447-0.146,2.108-0.433l0.209-0.091
		v1.263l-0.088,0.04C139.936,43.102,139.197,43.254,138.406,43.254L138.406,43.254z M139.583,38.958
		c-0.042-1-0.515-1.487-1.441-1.487c-0.942,0-1.465,0.487-1.597,1.487H139.583z"/>
	<path fill="#277F3E" d="M140.89,39.976h-4.535c0.031,1.465,0.703,2.197,2.016,2.197c0.762,0,1.484-0.148,2.168-0.445v0.938
		c-0.648,0.293-1.359,0.439-2.133,0.439c-0.957,0-1.723-0.292-2.297-0.876s-0.861-1.388-0.861-2.411c0-1.039,0.265-1.862,0.794-2.47
		s1.237-0.911,2.124-0.911c0.828,0,1.489,0.262,1.983,0.785s0.741,1.221,0.741,2.092V39.976z M136.378,39.108h3.357
		c0-1.191-0.531-1.787-1.594-1.787C137.068,37.321,136.48,37.917,136.378,39.108z"/>
</g>
</svg>
