<?xml version="1.0" encoding="utf-8"?>
<!-- Generator: Adobe Illustrator 14.0.0, SVG Export Plug-In . SVG Version: 6.00 Build 43363)  -->
<!DOCTYPE svg PUBLIC "-//W3C//DTD SVG 1.1//EN" "http://www.w3.org/Graphics/SVG/1.1/DTD/svg11.dtd">
<svg version="1.1" id="Layer_1" xmlns="http://www.w3.org/2000/svg" xmlns:xlink="http://www.w3.org/1999/xlink" x="0px" y="0px"
	 width="252px" height="138.5px" viewBox="0 0 252 138.5" enable-background="new 0 0 252 138.5" xml:space="preserve">
<rect x="6" y="13" fill="#F7F8F9" width="240" height="121"/>
<rect x="88" y="70.5" fill="#BCBEC0" width="66" height="22"/>
<g>
	<path d="M49.969,41.594c0,0.316,0.109,0.548,0.328,0.694s0.609,0.224,1.172,0.231v0.879c-1.711-0.023-2.566-0.596-2.566-1.717
		v-1.957c0-0.738-0.66-1.107-1.98-1.107v-0.908c1.32,0,1.98-0.369,1.98-1.107V34.65c0-1.121,0.855-1.693,2.566-1.717v0.873
		c-0.563,0.008-0.953,0.085-1.172,0.231s-0.328,0.378-0.328,0.694v1.945c0,0.809-0.455,1.293-1.365,1.453v0.07
		c0.91,0.16,1.365,0.645,1.365,1.453V41.594z"/>
	<path d="M61.189,55.613V54.64c0.754,0.336,1.477,0.504,2.168,0.504c1.074,0,1.611-0.316,1.611-0.949
		c0-0.223-0.096-0.416-0.287-0.58s-0.633-0.371-1.324-0.621c-0.91-0.34-1.483-0.651-1.72-0.935s-0.354-0.618-0.354-1.005
		c0-0.531,0.218-0.948,0.653-1.251s1.038-0.454,1.808-0.454c0.773,0,1.494,0.145,2.162,0.434l-0.352,0.873
		c-0.711-0.281-1.334-0.422-1.869-0.422c-0.922,0-1.383,0.26-1.383,0.779c0,0.238,0.099,0.429,0.296,0.571s0.651,0.341,1.362,0.595
		c0.824,0.301,1.372,0.597,1.644,0.888s0.407,0.647,0.407,1.069c0,0.586-0.229,1.046-0.686,1.38s-1.104,0.501-1.939,0.501
		C62.418,56.017,61.686,55.882,61.189,55.613z"/>
	<path d="M73.178,55.021v0.809c-0.508,0.125-1,0.188-1.477,0.188c-1.414,0-2.121-0.672-2.121-2.016v-3.732h-1.564v-0.551
		l1.564-0.287l0.451-1.682h0.615v1.717h2.566v0.803h-2.566v3.732c0,0.762,0.375,1.143,1.125,1.143
		C72.135,55.144,72.604,55.103,73.178,55.021z"/>
	<path d="M79.646,55.9l-0.217-0.891h-0.047c-0.301,0.379-0.609,0.642-0.926,0.788s-0.725,0.22-1.225,0.22
		c-0.637,0-1.136-0.168-1.497-0.504s-0.542-0.807-0.542-1.412c0-1.297,0.996-1.977,2.988-2.039l1.189-0.041v-0.404
		c0-0.922-0.477-1.383-1.43-1.383c-0.574,0-1.215,0.16-1.922,0.48l-0.369-0.803c0.766-0.375,1.514-0.563,2.244-0.563
		c0.887,0,1.528,0.17,1.925,0.51s0.595,0.885,0.595,1.635V55.9H79.646z M79.359,52.753l-0.949,0.041
		c-0.766,0.031-1.309,0.151-1.629,0.36s-0.48,0.528-0.48,0.958c0,0.695,0.391,1.043,1.172,1.043c0.574,0,1.032-0.159,1.374-0.478
		s0.513-0.767,0.513-1.345V52.753z"/>
	<path d="M87.58,55.021v0.809c-0.508,0.125-1,0.188-1.477,0.188c-1.414,0-2.121-0.672-2.121-2.016v-3.732h-1.564v-0.551l1.564-0.287
		l0.451-1.682h0.615v1.717h2.566v0.803h-2.566v3.732c0,0.762,0.375,1.143,1.125,1.143C86.537,55.144,87.006,55.103,87.58,55.021z"/>
	<path d="M95.227,52.888h-4.535c0.031,1.465,0.703,2.197,2.016,2.197c0.762,0,1.484-0.148,2.168-0.445v0.938
		c-0.648,0.293-1.359,0.439-2.133,0.439c-0.957,0-1.723-0.292-2.297-0.876s-0.861-1.388-0.861-2.411c0-1.039,0.265-1.862,0.794-2.47
		s1.237-0.911,2.124-0.911c0.828,0,1.489,0.262,1.983,0.785s0.741,1.221,0.741,2.092V52.888z M90.715,52.021h3.357
		c0-1.191-0.531-1.787-1.594-1.787C91.404,50.234,90.816,50.83,90.715,52.021z"/>
	<path d="M101.73,55.9v-4.143c0-0.57-0.052-0.967-0.155-1.189s-0.276-0.334-0.519-0.334c-0.34,0-0.587,0.162-0.741,0.486
		s-0.231,0.867-0.231,1.629V55.9h-0.943v-4.143c0-1.016-0.244-1.523-0.732-1.523c-0.328,0-0.563,0.155-0.703,0.466
		s-0.211,0.933-0.211,1.866V55.9h-0.949v-6.434h0.744l0.158,0.867h0.059c0.262-0.656,0.654-0.984,1.178-0.984
		c0.637,0,1.053,0.355,1.248,1.066h0.035c0.297-0.711,0.725-1.066,1.283-1.066c0.5,0,0.863,0.181,1.09,0.542s0.34,0.964,0.34,1.808
		V55.9H101.73z"/>
	<path d="M109.629,52.888h-4.535c0.031,1.465,0.703,2.197,2.016,2.197c0.762,0,1.484-0.148,2.168-0.445v0.938
		c-0.648,0.293-1.359,0.439-2.133,0.439c-0.957,0-1.723-0.292-2.297-0.876s-0.861-1.388-0.861-2.411c0-1.039,0.265-1.862,0.794-2.47
		s1.237-0.911,2.124-0.911c0.828,0,1.489,0.262,1.983,0.785s0.741,1.221,0.741,2.092V52.888z M105.117,52.021h3.357
		c0-1.191-0.531-1.787-1.594-1.787C105.807,50.234,105.219,50.83,105.117,52.021z"/>
	<path d="M115.605,55.9v-4.143c0-1.016-0.465-1.523-1.395-1.523c-1.199,0-1.799,0.777-1.799,2.332V55.9h-1.066v-6.434h0.861
		l0.158,0.867h0.059c0.402-0.656,1.059-0.984,1.969-0.984c1.52,0,2.279,0.783,2.279,2.35V55.9H115.605z"/>
	<path d="M123.586,55.021v0.809c-0.508,0.125-1,0.188-1.477,0.188c-1.414,0-2.121-0.672-2.121-2.016v-3.732h-1.564v-0.551
		l1.564-0.287l0.451-1.682h0.615v1.717h2.566v0.803h-2.566v3.732c0,0.762,0.375,1.143,1.125,1.143
		C122.543,55.144,123.012,55.103,123.586,55.021z"/>
	<path d="M126,55.613V54.64c0.754,0.336,1.477,0.504,2.168,0.504c1.074,0,1.611-0.316,1.611-0.949c0-0.223-0.096-0.416-0.287-0.58
		s-0.633-0.371-1.324-0.621c-0.91-0.34-1.483-0.651-1.72-0.935s-0.354-0.618-0.354-1.005c0-0.531,0.218-0.948,0.653-1.251
		s1.038-0.454,1.808-0.454c0.773,0,1.494,0.145,2.162,0.434l-0.352,0.873c-0.711-0.281-1.334-0.422-1.869-0.422
		c-0.922,0-1.383,0.26-1.383,0.779c0,0.238,0.099,0.429,0.296,0.571s0.651,0.341,1.362,0.595c0.824,0.301,1.372,0.597,1.644,0.888
		s0.407,0.647,0.407,1.069c0,0.586-0.229,1.046-0.686,1.38s-1.104,0.501-1.939,0.501C127.229,56.017,126.496,55.882,126,55.613z"/>
	<path d="M136.166,54.505l0.082,0.135c-0.199,0.77-0.543,1.705-1.031,2.807h-0.803c0.242-0.996,0.438-1.977,0.586-2.941H136.166z
		 M135.65,49.302c0.496,0,0.744,0.271,0.744,0.814s-0.248,0.814-0.744,0.814s-0.744-0.271-0.744-0.814S135.154,49.302,135.65,49.302
		z"/>
	<path d="M26.83,82.854c0-0.809,0.457-1.293,1.371-1.453v-0.07c-0.914-0.16-1.371-0.645-1.371-1.453v-1.945
		c0-0.316-0.11-0.549-0.331-0.697s-0.61-0.225-1.169-0.229v-0.873c1.715,0.023,2.572,0.596,2.572,1.717v1.951
		c0,0.738,0.66,1.107,1.98,1.107v0.908c-1.32,0-1.98,0.369-1.98,1.107v1.957c0,1.121-0.857,1.693-2.572,1.717V85.72
		c0.559-0.004,0.948-0.08,1.169-0.229s0.331-0.381,0.331-0.697V82.854z"/>
	<path d="M85.939,76.134h1.131c-1.754,1.469-2.631,3.213-2.631,5.232c0,2.035,0.873,3.779,2.619,5.232h-1.119
		c-1.734-1.379-2.602-3.119-2.602-5.221C83.338,79.3,84.205,77.552,85.939,76.134z"/>
	<path d="M95.027,78.495l-0.363,0.926c-0.586-0.223-1.109-0.334-1.57-0.334c-1.449,0-2.174,0.807-2.174,2.42
		c0,1.586,0.705,2.379,2.115,2.379c0.613,0,1.24-0.121,1.881-0.363v0.938c-0.523,0.238-1.166,0.357-1.928,0.357
		c-1.004,0-1.783-0.284-2.338-0.853s-0.832-1.384-0.832-2.446c0-1.098,0.283-1.934,0.85-2.508s1.363-0.861,2.391-0.861
		C93.754,78.149,94.41,78.265,95.027,78.495z"/>
	<path d="M99.586,84.817c-0.844,0-1.538-0.304-2.083-0.911s-0.817-1.419-0.817-2.435c0-1.027,0.265-1.838,0.794-2.432
		s1.243-0.891,2.142-0.891c0.852,0,1.549,0.303,2.092,0.908s0.814,1.41,0.814,2.414c0,1.035-0.268,1.852-0.803,2.449
		S100.477,84.817,99.586,84.817z M99.609,83.933c1.211,0,1.816-0.82,1.816-2.461c0-1.625-0.609-2.438-1.828-2.438
		c-1.207,0-1.811,0.813-1.811,2.438C97.787,83.112,98.395,83.933,99.609,83.933z"/>
	<path d="M108.41,84.7v-4.143c0-1.016-0.465-1.523-1.395-1.523c-1.199,0-1.799,0.777-1.799,2.332V84.7h-1.066v-6.434h0.861
		l0.158,0.867h0.059c0.402-0.656,1.059-0.984,1.969-0.984c1.52,0,2.279,0.783,2.279,2.35V84.7H108.41z"/>
	<path d="M115.67,83.839h-0.047c-0.441,0.652-1.07,0.979-1.887,0.979c-0.785,0-1.401-0.292-1.849-0.876s-0.671-1.399-0.671-2.446
		c0-1.055,0.225-1.876,0.674-2.464s1.064-0.882,1.846-0.882c0.805,0,1.434,0.313,1.887,0.938h0.07
		c-0.047-0.504-0.07-0.82-0.07-0.949v-2.555h1.066V84.7h-0.861L115.67,83.839z M115.623,81.735v-0.24
		c0-0.887-0.136-1.519-0.407-1.896s-0.704-0.565-1.298-0.565c-1.063,0-1.594,0.824-1.594,2.473c0,1.617,0.535,2.426,1.605,2.426
		c0.594,0,1.021-0.173,1.28-0.519S115.607,82.509,115.623,81.735z"/>
	<path d="M120.785,79.11l-1.576-0.123v-0.721h2.643v5.596l2.063,0.117V84.7h-5.145v-0.721l2.016-0.117V79.11z M121.324,75.618
		c0.414,0,0.621,0.223,0.621,0.668c0,0.227-0.062,0.396-0.185,0.507s-0.269,0.167-0.437,0.167c-0.418,0-0.627-0.225-0.627-0.674
		C120.697,75.841,120.906,75.618,121.324,75.618z"/>
	<path d="M130.793,83.821v0.809c-0.508,0.125-1,0.188-1.477,0.188c-1.414,0-2.121-0.672-2.121-2.016v-3.732h-1.564v-0.551
		l1.564-0.287l0.451-1.682h0.615v1.717h2.566v0.803h-2.566v3.732c0,0.762,0.375,1.143,1.125,1.143
		C129.75,83.944,130.219,83.903,130.793,83.821z"/>
	<path d="M135.188,79.11l-1.576-0.123v-0.721h2.643v5.596l2.063,0.117V84.7h-5.145v-0.721l2.016-0.117V79.11z M135.727,75.618
		c0.414,0,0.621,0.223,0.621,0.668c0,0.227-0.062,0.396-0.185,0.507s-0.269,0.167-0.437,0.167c-0.418,0-0.627-0.225-0.627-0.674
		C135.1,75.841,135.309,75.618,135.727,75.618z"/>
	<path d="M142.793,84.817c-0.844,0-1.538-0.304-2.083-0.911s-0.817-1.419-0.817-2.435c0-1.027,0.265-1.838,0.794-2.432
		s1.243-0.891,2.142-0.891c0.852,0,1.549,0.303,2.092,0.908s0.814,1.41,0.814,2.414c0,1.035-0.268,1.852-0.803,2.449
		S143.684,84.817,142.793,84.817z M142.816,83.933c1.211,0,1.816-0.82,1.816-2.461c0-1.625-0.609-2.438-1.828-2.438
		c-1.207,0-1.811,0.813-1.811,2.438C140.994,83.112,141.602,83.933,142.816,83.933z"/>
	<path d="M151.617,84.7v-4.143c0-1.016-0.465-1.523-1.395-1.523c-1.199,0-1.799,0.777-1.799,2.332V84.7h-1.066v-6.434h0.861
		l0.158,0.867h0.059c0.402-0.656,1.059-0.984,1.969-0.984c1.52,0,2.279,0.783,2.279,2.35V84.7H151.617z"/>
	<path d="M156.486,86.599h-1.113c1.742-1.449,2.613-3.193,2.613-5.232c0-2.023-0.875-3.768-2.625-5.232h1.125
		c1.738,1.41,2.607,3.158,2.607,5.244C159.094,83.487,158.225,85.228,156.486,86.599z"/>
	<path d="M164.977,83.306l0.082,0.135c-0.199,0.77-0.543,1.705-1.031,2.807h-0.803c0.242-0.996,0.438-1.977,0.586-2.941H164.977z
		 M164.461,78.103c0.496,0,0.744,0.271,0.744,0.814s-0.248,0.814-0.744,0.814s-0.744-0.271-0.744-0.814
		S163.965,78.103,164.461,78.103z"/>
</g>
<g>
	<path fill="#277F3E" d="M27.322,41.767c-0.831,0-1.493-0.314-1.968-0.935c-0.466-0.608-0.702-1.462-0.702-2.538
		c0-1.083,0.237-1.943,0.705-2.555c0.477-0.624,1.138-0.94,1.965-0.94c0.721,0,1.316,0.241,1.773,0.718
		c-0.024-0.292-0.037-0.485-0.037-0.58v-2.705h1.366v9.417h-1.136l-0.128-0.699C28.704,41.493,28.087,41.767,27.322,41.767
		L27.322,41.767z M27.504,35.984c-0.972,0-1.444,0.76-1.444,2.323c0,1.531,0.476,2.276,1.456,2.276c0.549,0,0.928-0.15,1.16-0.459
		c0.239-0.318,0.368-0.854,0.383-1.591v-0.237c0-0.851-0.127-1.458-0.379-1.808C28.436,36.148,28.051,35.984,27.504,35.984
		L27.504,35.984z"/>
	<path fill="#277F3E" d="M29.256,40.639h-0.047c-0.441,0.652-1.07,0.979-1.887,0.979c-0.785,0-1.401-0.292-1.849-0.876
		s-0.671-1.399-0.671-2.446c0-1.055,0.225-1.876,0.674-2.464s1.064-0.882,1.846-0.882c0.805,0,1.434,0.313,1.887,0.938h0.07
		c-0.047-0.504-0.07-0.82-0.07-0.949v-2.555h1.066V41.5h-0.861L29.256,40.639z M29.209,38.535v-0.24
		c0-0.887-0.136-1.519-0.407-1.896s-0.704-0.565-1.298-0.565c-1.063,0-1.594,0.824-1.594,2.473c0,1.617,0.535,2.426,1.605,2.426
		c0.594,0,1.021-0.173,1.28-0.519S29.193,39.309,29.209,38.535z"/>
	<path fill="#277F3E" d="M34.775,41.767c-0.884,0-1.623-0.323-2.195-0.961c-0.568-0.633-0.855-1.486-0.855-2.535
		c0-1.061,0.28-1.912,0.832-2.531c0.556-0.625,1.314-0.941,2.253-0.941c0.892,0,1.633,0.322,2.204,0.958
		c0.566,0.631,0.853,1.477,0.853,2.514c0,1.068-0.283,1.926-0.841,2.549C36.463,41.449,35.707,41.767,34.775,41.767L34.775,41.767z
		 M34.787,35.984c-1.117,0-1.661,0.749-1.661,2.288c0,1.555,0.547,2.311,1.672,2.311c1.121,0,1.667-0.756,1.667-2.311
		C36.465,36.732,35.917,35.984,34.787,35.984L34.787,35.984z"/>
	<path fill="#277F3E" d="M34.775,41.617c-0.844,0-1.538-0.304-2.083-0.911s-0.817-1.419-0.817-2.435
		c0-1.027,0.265-1.838,0.794-2.432s1.243-0.891,2.142-0.891c0.852,0,1.549,0.303,2.092,0.908s0.814,1.41,0.814,2.414
		c0,1.035-0.268,1.852-0.803,2.449S35.666,41.617,34.775,41.617z M34.799,40.732c1.211,0,1.816-0.82,1.816-2.461
		c0-1.625-0.609-2.438-1.828-2.438c-1.207,0-1.811,0.813-1.811,2.438C32.977,39.912,33.584,40.732,34.799,40.732z"/>
	<path fill="#277F3E" d="M43.045,84.85l-0.793-3.61l-0.266-1.29l-0.255,1.31l-0.819,3.59h-1.35l-1.368-6.733h1.258l0.596,3.305
		c0.084,0.459,0.16,0.939,0.228,1.435c0.078-0.419,0.16-0.831,0.246-1.234l0.806-3.505h1.371l0.77,3.504
		c0.095,0.431,0.179,0.844,0.25,1.238c0.08-0.56,0.159-1.042,0.235-1.439l0.621-3.303h1.234l-1.38,6.733H43.045z"/>
	<path fill="#277F3E" d="M43.166,84.7l-0.768-3.492L42,79.274h-0.035l-0.381,1.957L40.793,84.7h-1.107l-1.307-6.434h0.949
		l0.574,3.182c0.133,0.727,0.244,1.494,0.334,2.303h0.035c0.121-0.723,0.254-1.422,0.398-2.098l0.779-3.387h1.131l0.744,3.387
		c0.168,0.762,0.299,1.461,0.393,2.098h0.035c0.121-0.945,0.238-1.713,0.352-2.303l0.598-3.182h0.926L44.309,84.7H43.166z"/>
	<path fill="#277F3E" d="M50.651,84.85v-4.292c0-0.937-0.396-1.374-1.245-1.374c-1.109,0-1.649,0.714-1.649,2.182v3.484h-1.366
		v-9.417h1.366v2.857l-0.024,0.445C48.125,78.262,48.762,78,49.588,78c1.612,0,2.429,0.841,2.429,2.5v4.351H50.651z"/>
	<path fill="#277F3E" d="M50.801,84.7v-4.143c0-1.016-0.465-1.523-1.395-1.523c-1.199,0-1.799,0.777-1.799,2.332V84.7h-1.066v-9.117
		h1.066v2.707l-0.047,0.844h0.059c0.402-0.656,1.059-0.984,1.969-0.984c1.52,0,2.279,0.783,2.279,2.35V84.7H50.801z"/>
	<path fill="#277F3E" d="M53.809,84.85v-1.012l2.016-0.117v-4.472l-1.576-0.123v-1.009h2.942v5.604l2.063,0.117v1.012H53.809z
		 M56.514,77.11c-0.501,0-0.777-0.292-0.777-0.824c0-0.527,0.276-0.818,0.777-0.818c0.497,0,0.771,0.291,0.771,0.818
		c0,0.27-0.079,0.478-0.234,0.618C56.9,77.041,56.719,77.11,56.514,77.11L56.514,77.11z"/>
	<path fill="#277F3E" d="M55.975,79.11l-1.576-0.123v-0.721h2.643v5.596l2.063,0.117V84.7h-5.145v-0.721l2.016-0.117V79.11z
		 M56.514,75.618c0.414,0,0.621,0.223,0.621,0.668c0,0.227-0.062,0.396-0.185,0.507s-0.269,0.167-0.437,0.167
		c-0.418,0-0.627-0.225-0.627-0.674C55.887,75.841,56.096,75.618,56.514,75.618z"/>
	<polygon fill="#277F3E" points="60.958,84.85 60.958,83.838 62.973,83.721 62.973,76.56 61.403,76.437 61.403,75.433 
		64.345,75.433 64.345,83.721 66.408,83.838 66.408,84.85 	"/>
	<path fill="#277F3E" d="M63.123,76.421l-1.57-0.123v-0.715h2.643v8.279l2.063,0.117V84.7h-5.15v-0.721l2.016-0.117V76.421z"/>
	<path fill="#277F3E" d="M71.145,84.967c-0.994,0-1.803-0.31-2.404-0.921c-0.6-0.61-0.904-1.457-0.904-2.516
		c0-1.071,0.279-1.936,0.831-2.568C69.224,78.323,69.977,78,70.904,78c0.867,0,1.571,0.28,2.092,0.832
		c0.519,0.55,0.782,1.288,0.782,2.195v0.812H69.25c0.07,1.276,0.68,1.897,1.86,1.897c0.737,0,1.447-0.146,2.108-0.433l0.209-0.091
		v1.263l-0.088,0.04C72.674,84.815,71.936,84.967,71.145,84.967L71.145,84.967z M72.322,80.671c-0.042-1-0.515-1.487-1.441-1.487
		c-0.942,0-1.465,0.487-1.597,1.487H72.322z"/>
	<path fill="#277F3E" d="M73.629,81.688h-4.535c0.031,1.465,0.703,2.197,2.016,2.197c0.762,0,1.484-0.148,2.168-0.445v0.938
		c-0.648,0.293-1.359,0.439-2.133,0.439c-0.957,0-1.723-0.292-2.297-0.876s-0.861-1.388-0.861-2.411c0-1.039,0.265-1.862,0.794-2.47
		s1.237-0.911,2.124-0.911c0.828,0,1.489,0.262,1.983,0.785s0.741,1.221,0.741,2.092V81.688z M69.117,80.821h3.357
		c0-1.191-0.531-1.787-1.594-1.787C69.807,79.034,69.219,79.63,69.117,80.821z"/>
</g>
<g display="none">
	<path display="inline" fill="#277F3E" d="M208.241,70.621v0.809c-0.508,0.125-1,0.188-1.477,0.188
		c-1.414,0-2.121-0.672-2.121-2.016v-3.732h-1.564v-0.551l1.564-0.287l0.451-1.682h0.615v1.717h2.566v0.803h-2.566v3.732
		c0,0.762,0.375,1.143,1.125,1.143C207.198,70.744,207.667,70.703,208.241,70.621z"/>
	<path display="inline" fill="#277F3E" d="M215.67,65.213l-0.287,0.973c-0.48-0.176-0.918-0.264-1.313-0.264
		c-0.637,0-1.128,0.181-1.474,0.542s-0.519,0.884-0.519,1.567V71.5h-1.066v-6.434h0.867l0.129,1.178h0.047
		c0.297-0.465,0.615-0.797,0.955-0.996s0.758-0.299,1.254-0.299C214.725,64.949,215.194,65.037,215.67,65.213z"/>
	<path display="inline" fill="#277F3E" d="M222.069,71.5l-0.158-0.861h-0.059c-0.41,0.652-1.063,0.979-1.957,0.979
		c-1.527,0-2.291-0.783-2.291-2.35v-4.201h1.066v4.143c0,1.016,0.461,1.523,1.383,1.523c0.629,0,1.088-0.181,1.377-0.542
		s0.434-0.956,0.434-1.784v-3.34h1.066V71.5H222.069z"/>
	<path display="inline" fill="#277F3E" d="M230.29,68.488h-4.535c0.031,1.465,0.703,2.197,2.016,2.197
		c0.762,0,1.484-0.148,2.168-0.445v0.938c-0.648,0.293-1.359,0.439-2.133,0.439c-0.957,0-1.723-0.292-2.297-0.876
		s-0.861-1.388-0.861-2.411c0-1.039,0.265-1.862,0.794-2.47s1.237-0.911,2.124-0.911c0.828,0,1.489,0.262,1.983,0.785
		s0.741,1.221,0.741,2.092V68.488z M225.778,67.621h3.357c0-1.191-0.531-1.787-1.594-1.787
		C226.467,65.834,225.879,66.43,225.778,67.621z"/>
</g>
<g display="none">
	<path display="inline" fill="#277F3E" d="M82.614,102.036h-2.279v5.631h-1.066v-5.631h-1.857v-0.645l1.857-0.193v-0.563
		c0-0.754,0.176-1.301,0.527-1.641s0.936-0.51,1.752-0.51c0.504,0,0.996,0.068,1.477,0.205l-0.24,0.838
		c-0.406-0.109-0.811-0.164-1.213-0.164c-0.48,0-0.807,0.098-0.979,0.293s-0.258,0.518-0.258,0.967v0.609h2.279V102.036z"/>
	<path display="inline" fill="#277F3E" d="M88.942,107.667l-0.217-0.891h-0.047c-0.301,0.379-0.609,0.642-0.926,0.788
		s-0.725,0.22-1.225,0.22c-0.637,0-1.136-0.168-1.497-0.504s-0.542-0.807-0.542-1.412c0-1.297,0.996-1.977,2.988-2.039l1.189-0.041
		v-0.404c0-0.922-0.477-1.383-1.43-1.383c-0.574,0-1.215,0.16-1.922,0.48l-0.369-0.803c0.766-0.375,1.514-0.563,2.244-0.563
		c0.887,0,1.528,0.17,1.925,0.51s0.595,0.885,0.595,1.635v4.406H88.942z M88.655,104.521l-0.949,0.041
		c-0.766,0.031-1.309,0.151-1.629,0.36s-0.48,0.528-0.48,0.958c0,0.695,0.391,1.043,1.172,1.043c0.574,0,1.032-0.159,1.374-0.478
		s0.513-0.767,0.513-1.345V104.521z"/>
	<path display="inline" fill="#277F3E" d="M94.017,99.388l-1.57-0.123V98.55h2.643v8.279l2.063,0.117v0.721h-5.15v-0.721
		l2.016-0.117V99.388z"/>
	<path display="inline" fill="#277F3E" d="M99.29,107.38v-0.973c0.754,0.336,1.477,0.504,2.168,0.504
		c1.074,0,1.611-0.316,1.611-0.949c0-0.223-0.096-0.416-0.287-0.58s-0.633-0.371-1.324-0.621c-0.91-0.34-1.483-0.651-1.72-0.935
		s-0.354-0.618-0.354-1.005c0-0.531,0.218-0.948,0.653-1.251s1.038-0.454,1.808-0.454c0.773,0,1.494,0.145,2.162,0.434l-0.352,0.873
		c-0.711-0.281-1.334-0.422-1.869-0.422c-0.922,0-1.383,0.26-1.383,0.779c0,0.238,0.099,0.429,0.296,0.571s0.651,0.341,1.362,0.595
		c0.824,0.301,1.372,0.597,1.644,0.888s0.407,0.647,0.407,1.069c0,0.586-0.229,1.046-0.686,1.38s-1.104,0.501-1.939,0.501
		C100.519,107.784,99.786,107.649,99.29,107.38z"/>
	<path display="inline" fill="#277F3E" d="M111.724,104.655h-4.535c0.031,1.465,0.703,2.197,2.016,2.197
		c0.762,0,1.484-0.148,2.168-0.445v0.938c-0.648,0.293-1.359,0.439-2.133,0.439c-0.957,0-1.723-0.292-2.297-0.876
		s-0.861-1.388-0.861-2.411c0-1.039,0.265-1.862,0.794-2.47s1.237-0.911,2.124-0.911c0.828,0,1.489,0.262,1.983,0.785
		s0.741,1.221,0.741,2.092V104.655z M107.212,103.788h3.357c0-1.191-0.531-1.787-1.594-1.787
		C107.901,102.001,107.313,102.597,107.212,103.788z"/>
</g>
<g>
	<g>
		<line fill="none" stroke="#000000" stroke-width="2" x1="121" y1="98.667" x2="121" y2="112.667"/>
		<polygon points="116.936,110.634 118.146,109.423 121,112.277 123.855,109.423 125.064,110.634 121,114.698 		"/>
	</g>
</g>
<g>
	<path fill="#277F3E" d="M206.764,71.767c-1.507,0-2.271-0.729-2.271-2.166v-3.583h-1.564v-0.826l1.594-0.292l0.456-1.701h0.88
		v1.717h2.566v1.103h-2.566v3.583c0,0.677,0.31,0.993,0.975,0.993c0.354,0,0.82-0.041,1.385-0.122l0.171-0.024v1.099l-0.114,0.028
		C207.759,71.703,207.25,71.767,206.764,71.767L206.764,71.767z"/>
	<path fill="#277F3E" d="M208.241,70.621v0.809c-0.508,0.125-1,0.188-1.477,0.188c-1.414,0-2.121-0.672-2.121-2.016v-3.732h-1.564
		v-0.551l1.564-0.287l0.451-1.682h0.615v1.717h2.566v0.803h-2.566v3.732c0,0.762,0.375,1.143,1.125,1.143
		C207.198,70.744,207.667,70.703,208.241,70.621z"/>
	<path fill="#277F3E" d="M210.862,71.65v-6.733h1.151l0.106,0.969c0.255-0.342,0.528-0.6,0.814-0.767
		c0.361-0.212,0.809-0.319,1.33-0.319c0.477,0,0.967,0.092,1.458,0.273l0.132,0.048l-0.372,1.261l-0.15-0.055
		c-0.461-0.169-0.886-0.255-1.261-0.255c-0.591,0-1.051,0.167-1.365,0.496c-0.316,0.331-0.477,0.823-0.477,1.464v3.619H210.862z"/>
	<path fill="#277F3E" d="M215.67,65.213l-0.287,0.973c-0.48-0.176-0.918-0.264-1.313-0.264c-0.637,0-1.128,0.181-1.474,0.542
		s-0.519,0.884-0.519,1.567V71.5h-1.066v-6.434h0.867l0.129,1.178h0.047c0.297-0.465,0.615-0.797,0.955-0.996
		s0.758-0.299,1.254-0.299C214.725,64.949,215.194,65.037,215.67,65.213z"/>
	<path fill="#277F3E" d="M219.895,71.767c-1.62,0-2.441-0.841-2.441-2.5v-4.351h1.366v4.292c0,0.937,0.392,1.374,1.233,1.374
		c0.586,0,0.999-0.159,1.26-0.486c0.266-0.333,0.401-0.901,0.401-1.69v-3.49h1.366v6.733h-1.136l-0.131-0.712
		C221.425,71.47,220.763,71.767,219.895,71.767L219.895,71.767z"/>
	<path fill="#277F3E" d="M222.069,71.5l-0.158-0.861h-0.059c-0.41,0.652-1.063,0.979-1.957,0.979c-1.527,0-2.291-0.783-2.291-2.35
		v-4.201h1.066v4.143c0,1.016,0.461,1.523,1.383,1.523c0.629,0,1.088-0.181,1.377-0.542s0.434-0.956,0.434-1.784v-3.34h1.066V71.5
		H222.069z"/>
	<path fill="#277F3E" d="M227.805,71.767c-0.994,0-1.803-0.31-2.404-0.921c-0.6-0.61-0.904-1.457-0.904-2.516
		c0-1.071,0.279-1.936,0.831-2.568c0.557-0.639,1.31-0.962,2.237-0.962c0.867,0,1.571,0.28,2.092,0.832
		c0.519,0.55,0.782,1.288,0.782,2.195v0.812h-4.529c0.07,1.276,0.68,1.897,1.86,1.897c0.737,0,1.447-0.146,2.108-0.433l0.209-0.091
		v1.263L230,71.314C229.335,71.615,228.597,71.767,227.805,71.767L227.805,71.767z M228.982,67.471
		c-0.042-1-0.515-1.487-1.441-1.487c-0.942,0-1.465,0.487-1.597,1.487H228.982z"/>
	<path fill="#277F3E" d="M230.29,68.488h-4.535c0.031,1.465,0.703,2.197,2.016,2.197c0.762,0,1.484-0.148,2.168-0.445v0.938
		c-0.648,0.293-1.359,0.439-2.133,0.439c-0.957,0-1.723-0.292-2.297-0.876s-0.861-1.388-0.861-2.411c0-1.039,0.265-1.862,0.794-2.47
		s1.237-0.911,2.124-0.911c0.828,0,1.489,0.262,1.983,0.785s0.741,1.221,0.741,2.092V68.488z M225.778,67.621h3.357
		c0-1.191-0.531-1.787-1.594-1.787C226.467,65.834,225.879,66.43,225.778,67.621z"/>
</g>
<g>
	<path fill="#277F3E" d="M79.119,107.817v-5.631h-1.857v-0.93l1.857-0.193v-0.427c0-0.792,0.193-1.381,0.573-1.749
		c0.378-0.366,1.003-0.552,1.856-0.552c0.516,0,1.026,0.071,1.518,0.211l0.145,0.041l-0.322,1.124l-0.143-0.038
		c-0.392-0.105-0.787-0.159-1.174-0.159c-0.433,0-0.725,0.082-0.866,0.242c-0.146,0.166-0.221,0.458-0.221,0.868v0.459h2.279v1.103
		h-2.279v5.631H79.119z"/>
	<path fill="#277F3E" d="M82.614,102.036h-2.279v5.631h-1.066v-5.631h-1.857v-0.645l1.857-0.193v-0.563
		c0-0.754,0.176-1.301,0.527-1.641s0.936-0.51,1.752-0.51c0.504,0,0.996,0.068,1.477,0.205l-0.24,0.838
		c-0.406-0.109-0.811-0.164-1.213-0.164c-0.48,0-0.807,0.098-0.979,0.293s-0.258,0.518-0.258,0.967v0.609h2.279V102.036z"/>
	<path fill="#277F3E" d="M86.528,107.934c-0.673,0-1.211-0.183-1.599-0.544c-0.392-0.364-0.59-0.876-0.59-1.522
		c0-1.387,1.054-2.124,3.133-2.189l1.044-0.036v-0.259c0-0.841-0.407-1.233-1.28-1.233c-0.55,0-1.176,0.157-1.86,0.467l-0.136,0.062
		l-0.493-1.071l0.131-0.064c0.783-0.383,1.56-0.578,2.31-0.578c0.919,0,1.6,0.184,2.022,0.546c0.429,0.368,0.647,0.956,0.647,1.749
		v4.556h-1.035l-0.188-0.773c-0.232,0.286-0.523,0.52-0.82,0.657C87.481,107.855,87.048,107.934,86.528,107.934L86.528,107.934z
		 M87.712,104.711c-0.735,0.03-1.257,0.143-1.553,0.336c-0.278,0.181-0.413,0.454-0.413,0.833c0,0.609,0.325,0.893,1.022,0.893
		c0.532,0,0.96-0.147,1.272-0.438c0.313-0.292,0.465-0.695,0.465-1.235v-0.423L87.712,104.711z"/>
	<path fill="#277F3E" d="M88.942,107.667l-0.217-0.891h-0.047c-0.301,0.379-0.609,0.642-0.926,0.788s-0.725,0.22-1.225,0.22
		c-0.637,0-1.136-0.168-1.497-0.504s-0.542-0.807-0.542-1.412c0-1.297,0.996-1.977,2.988-2.039l1.189-0.041v-0.404
		c0-0.922-0.477-1.383-1.43-1.383c-0.574,0-1.215,0.16-1.922,0.48l-0.369-0.803c0.766-0.375,1.514-0.563,2.244-0.563
		c0.887,0,1.528,0.17,1.925,0.51s0.595,0.885,0.595,1.635v4.406H88.942z M88.655,104.521l-0.949,0.041
		c-0.766,0.031-1.309,0.151-1.629,0.36s-0.48,0.528-0.48,0.958c0,0.695,0.391,1.043,1.172,1.043c0.574,0,1.032-0.159,1.374-0.478
		s0.513-0.767,0.513-1.345V104.521z"/>
	<polygon fill="#277F3E" points="91.851,107.817 91.851,106.805 93.867,106.688 93.867,99.526 92.296,99.403 92.296,98.4 
		95.239,98.4 95.239,106.688 97.301,106.805 97.301,107.817 	"/>
	<path fill="#277F3E" d="M94.017,99.388l-1.57-0.123V98.55h2.643v8.279l2.063,0.117v0.721h-5.15v-0.721l2.016-0.117V99.388z"/>
	<path fill="#277F3E" d="M101.487,107.934c-0.99,0-1.753-0.142-2.269-0.422l-0.078-0.042v-1.293l0.211,0.094
		c0.731,0.326,1.44,0.491,2.107,0.491c1.461,0,1.461-0.602,1.461-0.799c0-0.178-0.077-0.331-0.235-0.466
		c-0.122-0.104-0.442-0.292-1.277-0.594c-0.945-0.353-1.528-0.673-1.784-0.979c-0.258-0.31-0.389-0.68-0.389-1.101
		c0-0.581,0.241-1.043,0.718-1.374c0.459-0.319,1.096-0.481,1.893-0.481c0.791,0,1.538,0.15,2.222,0.446l0.134,0.058l-0.462,1.147
		l-0.139-0.055c-0.69-0.273-1.3-0.412-1.814-0.412c-1.233,0-1.233,0.474-1.233,0.629c0,0.189,0.077,0.336,0.234,0.45
		c0.185,0.134,0.63,0.327,1.325,0.575c0.856,0.312,1.413,0.615,1.703,0.926c0.297,0.318,0.447,0.713,0.447,1.172
		c0,0.634-0.251,1.139-0.747,1.501C103.034,107.756,102.352,107.934,101.487,107.934L101.487,107.934z"/>
	<path fill="#277F3E" d="M99.29,107.38v-0.973c0.754,0.336,1.477,0.504,2.168,0.504c1.074,0,1.611-0.316,1.611-0.949
		c0-0.223-0.096-0.416-0.287-0.58s-0.633-0.371-1.324-0.621c-0.91-0.34-1.483-0.651-1.72-0.935s-0.354-0.618-0.354-1.005
		c0-0.531,0.218-0.948,0.653-1.251s1.038-0.454,1.808-0.454c0.773,0,1.494,0.145,2.162,0.434l-0.352,0.873
		c-0.711-0.281-1.334-0.422-1.869-0.422c-0.922,0-1.383,0.26-1.383,0.779c0,0.238,0.099,0.429,0.296,0.571s0.651,0.341,1.362,0.595
		c0.824,0.301,1.372,0.597,1.644,0.888s0.407,0.647,0.407,1.069c0,0.586-0.229,1.046-0.686,1.38s-1.104,0.501-1.939,0.501
		C100.519,107.784,99.786,107.649,99.29,107.38z"/>
	<path fill="#277F3E" d="M109.239,107.934c-0.994,0-1.803-0.31-2.404-0.921c-0.6-0.61-0.904-1.457-0.904-2.516
		c0-1.071,0.279-1.936,0.831-2.568c0.557-0.639,1.31-0.962,2.237-0.962c0.867,0,1.571,0.28,2.092,0.832
		c0.519,0.55,0.782,1.288,0.782,2.195v0.812h-4.529c0.07,1.276,0.68,1.897,1.86,1.897c0.737,0,1.447-0.146,2.108-0.433l0.209-0.091
		v1.263l-0.088,0.04C110.769,107.782,110.031,107.934,109.239,107.934L109.239,107.934z M110.417,103.638
		c-0.042-1-0.515-1.487-1.441-1.487c-0.942,0-1.465,0.487-1.597,1.487H110.417z"/>
	<path fill="#277F3E" d="M111.724,104.655h-4.535c0.031,1.465,0.703,2.197,2.016,2.197c0.762,0,1.484-0.148,2.168-0.445v0.938
		c-0.648,0.293-1.359,0.439-2.133,0.439c-0.957,0-1.723-0.292-2.297-0.876s-0.861-1.388-0.861-2.411c0-1.039,0.265-1.862,0.794-2.47
		s1.237-0.911,2.124-0.911c0.828,0,1.489,0.262,1.983,0.785s0.741,1.221,0.741,2.092V104.655z M107.212,103.788h3.357
		c0-1.191-0.531-1.787-1.594-1.787C107.901,102.001,107.313,102.597,107.212,103.788z"/>
</g>
<g>
	<g>
		<polyline fill="none" stroke="#000000" stroke-width="2" points="174,82 196.5,82 196.5,52.5 147.5,52.5 		"/>
		<polygon points="149.533,48.436 150.744,49.646 147.89,52.5 150.744,55.355 149.533,56.564 145.469,52.5 		"/>
	</g>
</g>
<g>
</g>
</svg>
